<svg xmlns="http://www.w3.org/2000/svg" viewBox="0 0 500 500"><g id="freepik--background-complete--inject-203"><path d="M113.3,150.47a37.94,37.94,0,1,0-62.37,14.69l-3.13,9,31.41,10.9s2-5,3.59-9.51A37.94,37.94,0,0,0,113.3,150.47Z" style="fill:#f5f5f5"></path><path d="M60.23,178.18c3.91-11.88,8.64-23.48,12.29-35.45a69.09,69.09,0,0,0,2-7.88c.57-3.15.49-6.83-2.3-8.95-2.64-2-5.73-.68-7.67,1.61a16.66,16.66,0,0,0-3.68,8.79,17,17,0,0,0,7.75,16.52,17.18,17.18,0,0,0,17.7.46c5.07-3,9.2-9.12,8.6-15.19-.24-2.43-1.36-5.19-3.85-6.06-2.93-1-5.46,1.08-7.05,3.33a46.83,46.83,0,0,0-4.33,8.71c-1.39,3.24-2.7,6.51-4,9.8-2.7,7-5.22,14.07-7.91,21.07q-.92,2.37-1.86,4.71c-.3.75.91,1.07,1.21.34C72,168.06,76,155.8,81.12,144a47.67,47.67,0,0,1,3.82-7.71c1.54-2.29,4.65-4.77,7.14-2.19,2,2,1.93,5.42,1.28,8A16.39,16.39,0,0,1,89,149.71a15.85,15.85,0,0,1-26.87-9.86,16.47,16.47,0,0,1,1.81-9.09c1.34-2.52,4.33-6.15,7.45-4s2.31,6.64,1.56,9.81c-.52,2.21-1.16,4.39-1.84,6.56-3.63,11.7-8.22,23.07-12.06,34.7-.25.76,1,1.09,1.21.33Z" style="fill:#fff"></path><g id="freepik--2ggvdetif--inject-203"><path d="M50.24,195.47A10.56,10.56,0,0,1,51.66,198a2.25,2.25,0,0,0,1.39,1.37l6.32,2.19a2.28,2.28,0,0,0,2.1-.32,4.19,4.19,0,0,1,2.74-.94Z" style="fill:#e0e0e0"></path></g><path d="M49.48,175.49c0,.12-2,10.51-2.74,14.48a4.94,4.94,0,0,0,1.38,4.48,4.45,4.45,0,0,0,1.66,1l13.83,4.79s3.62,1.25,5.43-1.33,7.65-14,7.65-14Z" style="fill:#ebebeb"></path><path d="M58.52,179.58h.08a.73.73,0,0,1,.73.73v25.5a.73.73,0,0,1-.73.73h-.08a.73.73,0,0,1-.73-.73v-25.5a.72.72,0,0,1,.72-.72Z" transform="translate(-143.06 185.97) rotate(-71.11)" style="fill:#ebebeb"></path><path d="M70.38,197.91a.94.94,0,0,0,.54-.06.75.75,0,0,0,.38-.51.7.7,0,0,0-.3-.77c-1.3-.47-3.26-1.1-5.64-1.91l-18.65-6.34a.59.59,0,0,0-.56.1.6.6,0,0,0-.19.23.82.82,0,0,0-.07.3.59.59,0,0,0,.25.5,2.77,2.77,0,0,0,.62.24l2.61.9,5,1.7,8.37,2.89,5.63,2,1.53.55.4.15.13.06-.14,0-.41-.12-1.54-.51-5.66-1.89-8.39-2.84-5-1.69-2.61-.89-.34-.12a1,1,0,0,1-.35-.16.85.85,0,0,1-.35-.71,1.18,1.18,0,0,1,.1-.39.81.81,0,0,1,.25-.33.88.88,0,0,1,.8-.13l18.62,6.41c2.38.83,4.31,1.47,5.64,2a.77.77,0,0,1,.32.87.79.79,0,0,1-.43.53A.65.65,0,0,1,70.38,197.91Z" style="fill:#e0e0e0"></path><rect x="58.87" y="175.93" width="1.53" height="28.03" rx="0.73" transform="translate(-139.38 184.89) rotate(-71.11)" style="fill:#ebebeb"></rect><path d="M72,195a.71.71,0,0,0,.55-.07.76.76,0,0,0,.38-.54.68.68,0,0,0-.38-.76l-5.88-2L47.28,185a.6.6,0,0,0-.59.11.51.51,0,0,0-.17.24.77.77,0,0,0-.07.32.62.62,0,0,0,.31.5c.18.08.45.16.67.24l2.71.93,5.14,1.76,8.7,3,5.85,2.05,1.59.57.41.15L72,195l-.15,0-.42-.13-1.6-.52-5.88-2-8.71-2.95-5.14-1.75-2.72-.93c-.24-.09-.45-.14-.71-.26a.85.85,0,0,1-.43-.7.91.91,0,0,1,.08-.41.79.79,0,0,1,.24-.35.89.89,0,0,1,.83-.16l19.34,6.66c2.48.86,4.47,1.55,5.86,2a.77.77,0,0,1,.41.86.81.81,0,0,1-.42.58A.64.64,0,0,1,72,195Z" style="fill:#e0e0e0"></path><path d="M73.37,192l-25.8-8.82a.73.73,0,0,1-.45-.93l0-.07a.73.73,0,0,1,.92-.45l25.8,8.82a.73.73,0,0,1,.45.92l0,.08A.72.72,0,0,1,73.37,192Z" style="fill:#ebebeb"></path><path d="M73.37,192a.76.76,0,0,0,.57-.07.79.79,0,0,0,.37-.57.69.69,0,0,0-.44-.75l-6-2L48,181.82a.62.62,0,0,0-.6.11.56.56,0,0,0-.17.26.63.63,0,0,0,0,.32.58.58,0,0,0,.34.49l.69.25,2.79.95L56.29,186l8.9,3.07,6,2.09,1.63.58.42.16.14.06-.15,0-.43-.13-1.64-.54-6-2-8.92-3L51,184.43l-2.79-1-.72-.25a.86.86,0,0,1-.41-1.12.85.85,0,0,1,1.08-.53l19.8,6.82,6,2.09a.78.78,0,0,1,.47.85.82.82,0,0,1-.42.6A.62.62,0,0,1,73.37,192Z" style="fill:#e0e0e0"></path><path d="M49,165.75c-.09.26-1.61,6.51-2.39,9.71a4,4,0,0,0,.72,3.38l1.1,1.4,26.74,9.25,1.7-.42a4,4,0,0,0,2.68-2.24l4-9.11Z" style="fill:#e0e0e0"></path><path d="M78.4,187.9c0,.06-7.19-2.36-16-5.42s-16-5.58-15.93-5.64,7.19,2.36,16,5.41S78.42,187.83,78.4,187.9Z" style="fill:#ebebeb"></path><path d="M453.85,66.08a30.78,30.78,0,1,0-28,43.79l3.28,7,24.45-11.41s-1.69-4-3.28-7.57A30.76,30.76,0,0,0,453.85,66.08Z" style="fill:#f5f5f5"></path><path d="M438.7,112.12c-4.51-9.3-8.37-18.92-13.14-28.1-1.88-3.62-4.5-9.73-9.47-9.18-5.88.65-3.46,8.84-1.37,11.92A14,14,0,0,0,427.8,93a14.25,14.25,0,0,0,11.45-8.28c2-4.79,1.36-11-2.29-14.93-1.53-1.62-4-3-6.29-2.12s-2.8,3.29-2.58,5.43c.29,2.86,1.51,5.66,2.52,8.32,1.18,3.09,2.45,6.13,3.75,9.16,2.75,6.38,5.66,12.69,8.28,19.12.3.74,1.51.42,1.21-.33-3.89-9.54-8.44-18.82-12.1-28.46a50,50,0,0,1-2.17-6.42c-.5-2.18-.55-5.81,2.55-5.84,2.57,0,4.56,2.42,5.62,4.49a13.46,13.46,0,0,1,1.33,7.28,12.75,12.75,0,0,1-21.81,7.51,13.07,13.07,0,0,1-3.39-6.2c-.57-2.57,0-6.24,3.46-5.63,2.57.46,4.05,3,5.26,5.11.93,1.58,1.77,3.2,2.6,4.83,4.42,8.77,8.14,17.87,12.42,26.71.35.72,1.43.09,1.08-.64Z" style="fill:#fff"></path><g id="freepik--2ggvdetif--inject-203"><path d="M442.56,127.91a8.26,8.26,0,0,1,2.25.67,1.85,1.85,0,0,0,1.59,0l4.92-2.3a1.85,1.85,0,0,0,1-1.37,3.42,3.42,0,0,1,1.07-2.1Z" style="fill:#e0e0e0"></path></g><path d="M430.83,116.7c.05.1,4.78,7.25,6.59,10a4,4,0,0,0,3.33,1.83,3.75,3.75,0,0,0,1.55-.34l10.75-5s2.81-1.32,2.41-3.84c-.43-2.67-3.47-12.49-3.47-12.49Z" style="fill:#ebebeb"></path><rect x="435.11" y="121.18" width="21.86" height="1.24" rx="0.59" transform="translate(-9.33 201.96) rotate(-25.26)" style="fill:#ebebeb"></rect><path d="M455.66,118a.66.66,0,0,0,.28-.34.62.62,0,0,0-.06-.52.57.57,0,0,0-.61-.27c-1,.46-2.52,1.2-4.36,2.08l-14.44,6.84a.51.51,0,0,0-.28.37.5.5,0,0,0,0,.24.78.78,0,0,0,.12.22.48.48,0,0,0,.43.15,2.56,2.56,0,0,0,.5-.21l2-1,3.84-1.81,6.51-3,4.39-2,1.2-.55.31-.13c.07,0,.11,0,.11,0l-.1,0-.3.16-1.19.58-4.36,2.09-6.49,3.09-3.83,1.81-2,1-.26.12a.82.82,0,0,1-.3.11.71.71,0,0,1-.61-.22.88.88,0,0,1-.16-.28.78.78,0,0,1,0-.34.7.7,0,0,1,.39-.52l14.47-6.79c1.86-.86,3.34-1.58,4.4-2a.63.63,0,0,1,.68.33.64.64,0,0,1,.05.55A.55.55,0,0,1,455.66,118Z" style="fill:#e0e0e0"></path><rect x="433.54" y="118.76" width="22.74" height="1.24" rx="0.59" transform="translate(-8.4 201.25) rotate(-25.26)" style="fill:#ebebeb"></rect><path d="M454.93,115.34a.69.69,0,0,0,.29-.35.62.62,0,0,0-.1-.54.55.55,0,0,0-.65-.22l-4.53,2.17-15,7.11a.5.5,0,0,0-.28.39.49.49,0,0,0,0,.24.6.6,0,0,0,.14.22.49.49,0,0,0,.46.12c.15,0,.35-.16.53-.24l2.1-1,4-1.88,6.76-3.16,4.56-2.12,1.25-.57.32-.14.12,0-.11.06-.31.16-1.23.6-4.54,2.18-6.74,3.2-4,1.89-2.11,1c-.19.08-.34.17-.56.25a.7.7,0,0,1-.65-.16,1,1,0,0,1-.18-.29.65.65,0,0,1-.06-.34.7.7,0,0,1,.4-.55l15-7.06c1.93-.9,3.48-1.62,4.57-2.11a.61.61,0,0,1,.72.26.66.66,0,0,1,.08.58A.5.5,0,0,1,454.93,115.34Z" style="fill:#e0e0e0"></path><path d="M454.05,112.8l-20,9.44a.59.59,0,0,1-.78-.28l0-.06a.6.6,0,0,1,.28-.78l20-9.44a.59.59,0,0,1,.78.28l0,.06A.59.59,0,0,1,454.05,112.8Z" style="fill:#ebebeb"></path><path d="M454.05,112.8a.64.64,0,0,0,.29-.36.63.63,0,0,0-.11-.54.54.54,0,0,0-.67-.19l-4.65,2.22-15.35,7.28a.47.47,0,0,0-.28.4.43.43,0,0,0,.05.25.51.51,0,0,0,.15.22.49.49,0,0,0,.47.09l.54-.25,2.16-1,4.09-1.92,6.91-3.24,4.68-2.17,1.27-.58.33-.14.12,0-.11.06-.32.17-1.26.61-4.65,2.23-6.9,3.28-4.07,1.93-2.16,1-.56.26a.68.68,0,0,1-.67-.13.69.69,0,0,1-.21-.28.7.7,0,0,1-.06-.35.68.68,0,0,1,.39-.57l15.38-7.23,4.68-2.17a.62.62,0,0,1,.75.23.69.69,0,0,1,.1.59A.5.5,0,0,1,454.05,112.8Z" style="fill:#e0e0e0"></path><path d="M425,111.34c.09.19,2.74,4.69,4.09,7a3.2,3.2,0,0,0,2.33,1.55l1.43.2,20.8-9.72.76-1.21a3.24,3.24,0,0,0,.29-2.81l-2.8-7.59Z" style="fill:#e0e0e0"></path><path d="M454.68,107.58c0,.06-5.52,2.7-12.38,5.9s-12.45,5.77-12.47,5.72,5.52-2.69,12.38-5.9S454.65,107.53,454.68,107.58Z" style="fill:#ebebeb"></path><path d="M319.23,250.7l-122.87-1.14-37.23-.17-10.13,0-2.63,0a5.69,5.69,0,0,0-.9,0,5.27,5.27,0,0,0,.9.06l2.63.06,10.13.12,37.23.2,122.87.07c48,0,91.38.06,122.82.28,15.72.11,28.44.25,37.23.42,4.4.08,7.81.16,10.13.25a18.8,18.8,0,0,1,3.53.26,20.77,20.77,0,0,1-3.54.22c-2.31.06-5.72.11-10.12.15-8.79.08-21.52.1-37.24,0C410.61,251.54,367.18,251.18,319.23,250.7Z" style="fill:#ebebeb"></path><path d="M318.27,261.11,197.09,241.62l-36.76-5.73-10-1.49-2.61-.36a5.44,5.44,0,0,0-.9-.08,6,6,0,0,0,.88.19l2.59.45,10,1.64L197,242l121.37,18.42c47.37,7.15,90.26,13.69,121.28,18.61,15.51,2.46,28.06,4.5,36.72,6,4.32.73,7.68,1.33,9.95,1.76a17.73,17.73,0,0,1,3.45.79,20.1,20.1,0,0,1-3.53-.31c-2.29-.28-5.68-.74-10-1.35-8.7-1.24-21.27-3.12-36.79-5.52C408.4,275.6,365.56,268.75,318.27,261.11Z" style="fill:#ebebeb"></path><path d="M315.63,271.24l-116.48-37.6-35.36-11.22-9.63-3-2.52-.75a7.43,7.43,0,0,0-.87-.22,5.09,5.09,0,0,0,.83.33l2.49.84,9.58,3.13L199,234l116.84,36.56c45.61,14.23,86.9,27.18,116.72,36.74,14.92,4.77,27,8.69,35.28,11.46,4.15,1.38,7.37,2.48,9.54,3.25a17.9,17.9,0,0,1,3.27,1.3,19.66,19.66,0,0,1-3.43-.83c-2.22-.63-5.48-1.59-9.68-2.86-8.39-2.54-20.49-6.3-35.43-11C402.26,299.21,361.08,286,315.63,271.24Z" style="fill:#ebebeb"></path><path d="M311.37,280.84,202.49,226.1l-33.08-16.43-9-4.41L158,204.14a8.45,8.45,0,0,0-.83-.35,6,6,0,0,0,.78.45l2.31,1.2,9,4.54,33.06,16.46,109.4,53.79c42.71,21,81.36,40,109.25,53.94,13.95,7,25.21,12.66,33,16.65,3.88,2,6.88,3.57,8.9,4.66a17.42,17.42,0,0,1,3,1.77,19.14,19.14,0,0,1-3.25-1.35c-2.1-.95-5.16-2.4-9.1-4.29-7.86-3.77-19.2-9.32-33.18-16.23C392.34,321.55,353.85,302.24,311.37,280.84Z" style="fill:#ebebeb"></path><path d="M305.59,289.68,207,219.25l-30-21.2-8.21-5.71-2.15-1.46a6.65,6.65,0,0,0-.75-.47,5.17,5.17,0,0,0,.69.56l2.09,1.54,8.11,5.82,30,21.23L306,289.12c38.78,27.12,73.85,51.73,99.14,69.7,12.64,9,22.84,16.29,29.84,21.4,3.51,2.55,6.21,4.55,8,5.93a18.13,18.13,0,0,1,2.7,2.21,17.72,17.72,0,0,1-3-1.82c-1.91-1.26-4.7-3.14-8.28-5.6-7.16-4.91-17.45-12.09-30.13-21C379,342.06,344.07,317.2,305.59,289.68Z" style="fill:#ebebeb"></path><path d="M298.45,297.54l-86-84.32-26.2-25.43L179,180.93l-1.89-1.77a6,6,0,0,0-.67-.57,6.93,6.93,0,0,0,.59.65l1.82,1.83,7.06,7,26.19,25.45L299,297.05c33.92,32.6,64.59,62.15,86.66,83.68,11,10.76,19.92,19.51,26,25.6,3.05,3.05,5.4,5.43,7,7.06a18.58,18.58,0,0,1,2.31,2.59,18.1,18.1,0,0,1-2.67-2.25c-1.68-1.52-4.13-3.81-7.27-6.77-6.28-5.92-15.29-14.55-26.37-25.27C362.44,360.26,332,330.48,298.45,297.54Z" style="fill:#ebebeb"></path><path d="M290.12,304.25l-71.35-96.17L197,179l-6-7.85c-.69-.87-1.21-1.54-1.58-2a6.35,6.35,0,0,0-.57-.67,4,4,0,0,0,.48.73l1.49,2.08,5.86,7.94c5.15,6.89,12.58,16.8,21.75,29.05l72.26,95.54c28.24,37.26,53.75,71.05,72.06,95.61,9.17,12.28,16.53,22.26,21.57,29.18,2.52,3.47,4.45,6.17,5.74,8a17.44,17.44,0,0,1,1.86,2.9,18,18,0,0,1-2.27-2.61c-1.41-1.77-3.47-4.39-6.09-7.78-5.24-6.79-12.74-16.67-22-28.91C343.19,375.77,317.94,341.8,290.12,304.25Z" style="fill:#ebebeb"></path><path d="M280.82,309.62C259.4,268.34,240,231,226,203.91c-7.08-13.47-12.81-24.38-16.78-31.95l-4.63-8.66-1.24-2.24a4.42,4.42,0,0,0-.45-.74,4.65,4.65,0,0,0,.35.79c.28.54.65,1.3,1.14,2.28,1,2,2.56,5,4.49,8.73,4,7.57,9.7,18.48,16.76,32L281.46,309.3c21.83,41.05,41.53,78.26,55.63,105.27,7.05,13.51,12.71,24.47,16.55,32.07,1.93,3.8,3.4,6.76,4.37,8.78a16.86,16.86,0,0,1,1.36,3.14,18.25,18.25,0,0,1-1.81-2.92c-1.12-1.95-2.72-4.85-4.75-8.6-4.08-7.49-9.88-18.37-17-31.85C321.6,388.23,302.18,350.89,280.82,309.62Z" style="fill:#ebebeb"></path><path d="M270.74,313.52,233.89,200.83l-11.34-34.09c-1.37-4-2.43-7.1-3.16-9.25-.37-1-.65-1.83-.85-2.4a4.8,4.8,0,0,0-.33-.8,6.93,6.93,0,0,0,.22.84c.18.57.43,1.38.76,2.42.69,2.16,1.7,5.28,3,9.3,2.68,8.08,6.55,19.72,11.32,34.1l37.92,112.36c14.84,43.84,28.22,83.56,37.71,112.37,4.76,14.4,8.55,26.08,11.1,34.17,1.28,4,2.25,7.19,2.88,9.33a16.91,16.91,0,0,1,.83,3.31,17.46,17.46,0,0,1-1.32-3.16c-.78-2.1-1.89-5.2-3.28-9.21-2.8-8-6.75-19.64-11.57-34C298.15,397.33,285.09,357.51,270.74,313.52Z" style="fill:#ebebeb"></path><path d="M260.16,315.85c-7-45.64-13.36-86.93-18-116.86-2.37-14.92-4.29-27-5.62-35.39L235,154q-.28-1.61-.45-2.49a4.89,4.89,0,0,0-.19-.84,5.08,5.08,0,0,0,.08.86c.08.59.2,1.42.35,2.51.33,2.23.82,5.47,1.44,9.63,1.33,8.39,3.24,20.47,5.6,35.39,4.88,29.89,11.62,71.12,19.06,116.69s14.18,86.79,18.85,116.68c2.33,14.94,4.17,27,5.37,35.42.6,4.19,1,7.44,1.31,9.65a16.55,16.55,0,0,1,.28,3.39,16.93,16.93,0,0,1-.78-3.32c-.43-2.18-1-5.42-1.74-9.59-1.45-8.33-3.45-20.41-5.85-35.35C273.51,402.75,267.13,361.46,260.16,315.85Z" style="fill:#ebebeb"></path><path d="M249.32,316.55c.43-46.12.82-87.86,1.11-118.11.06-15.1.12-27.32.15-35.8,0-4.2,0-7.47,0-9.73,0-1.09,0-1.93,0-2.53a8.47,8.47,0,0,0-.05-.87,4.93,4.93,0,0,0-.06.87c0,.6,0,1.44-.06,2.53,0,2.25-.07,5.52-.12,9.73,0,8.48-.11,20.7-.18,35.79,0,30.26,0,72,0,118.13s0,87.85-.21,118.07c-.1,15.11-.25,27.34-.41,35.79-.08,4.23-.17,7.51-.26,9.74a18.41,18.41,0,0,1-.26,3.39,16.7,16.7,0,0,1-.24-3.4c-.06-2.22-.12-5.5-.16-9.73-.09-8.45-.11-20.68-.07-35.8C248.5,404.4,248.85,362.65,249.32,316.55Z" style="fill:#ebebeb"></path><path d="M238.49,315.64c7.89-45.5,15-86.67,20.2-116.52,2.5-14.9,4.53-27,5.93-35.33.67-4.16,1.19-7.39,1.54-9.62.16-1.08.29-1.91.37-2.51a4.6,4.6,0,0,0,.09-.86,5.81,5.81,0,0,0-.2.84c-.11.6-.26,1.42-.47,2.49-.39,2.23-1,5.46-1.69,9.6-1.42,8.37-3.45,20.43-6,35.33-4.89,29.89-11.63,71.13-19.08,116.69S225,402.54,219.92,432.36c-2.54,14.91-4.66,27-6.19,35.3-.77,4.16-1.38,7.39-1.83,9.57a18.35,18.35,0,0,1-.81,3.32,16.49,16.49,0,0,1,.31-3.39c.29-2.21.77-5.46,1.41-9.64,1.28-8.37,3.23-20.45,5.71-35.38C223.47,402.3,230.57,361.11,238.49,315.64Z" style="fill:#ebebeb"></path><path d="M228,313.11l39-112c4.92-14.33,8.89-25.93,11.65-34l3.1-9.27c.33-1,.59-1.84.78-2.42a5.13,5.13,0,0,0,.22-.84,5.26,5.26,0,0,0-.33.81l-.88,2.38L278.28,167c-2.77,8.06-6.76,19.66-11.68,34-9.73,28.78-23.14,68.48-38,112.35s-28.23,83.55-38.14,112.23c-5,14.35-9,25.93-11.9,33.92-1.44,4-2.58,7.09-3.38,9.18a16.81,16.81,0,0,1-1.35,3.15,17.75,17.75,0,0,1,.86-3.3c.65-2.14,1.65-5.28,3-9.31,2.63-8.07,6.54-19.71,11.43-34.07C198.91,396.41,212.68,356.81,228,313.11Z" style="fill:#ebebeb"></path><path d="M218,309c22.21-40.89,42.31-77.89,56.87-104.71,7.2-13.42,13-24.27,17.07-31.81l4.58-8.69c.5-1,.89-1.73,1.16-2.27a6,6,0,0,0,.37-.79,4.28,4.28,0,0,0-.47.74c-.29.53-.71,1.27-1.25,2.23l-4.71,8.61c-4.06,7.54-9.89,18.39-17.1,31.8L218.6,309.33c-21.78,41.08-41.56,78.24-56,105.07-7.24,13.41-13.15,24.24-17.29,31.69-2.08,3.73-3.71,6.62-4.84,8.56a18.1,18.1,0,0,1-1.84,2.9,16.86,16.86,0,0,1,1.39-3.12c1-2,2.5-5,4.46-8.75,3.92-7.56,9.68-18.46,16.87-31.91C175.66,386.89,195.73,349.87,218,309Z" style="fill:#ebebeb"></path><path d="M208.76,303.47,282,208.59l22-28.85,5.93-7.89,1.51-2.07a4.57,4.57,0,0,0,.49-.73,6.22,6.22,0,0,0-.57.67c-.38.48-.92,1.14-1.6,2l-6.06,7.8-22.06,28.84-72.3,95.51c-28.18,37.3-53.76,71-72.43,95.35-9.34,12.16-16.94,22-22.25,28.71-2.65,3.37-4.73,6-6.16,7.72a17.88,17.88,0,0,1-2.3,2.59,17.55,17.55,0,0,1,1.89-2.88c1.31-1.84,3.27-4.52,5.82-8,5.11-6.89,12.57-16.79,21.85-29C154.32,374,180.16,340.47,208.76,303.47Z" style="fill:#ebebeb"></path><path d="M200.58,296.61c34.22-32.33,65.2-61.58,87.65-82.78l26.44-25.21,7.13-6.9,1.84-1.82a5.91,5.91,0,0,0,.6-.64,4,4,0,0,0-.68.57l-1.9,1.74-7.25,6.8L288,213.56,201.09,297.1c-33.88,32.63-64.61,62.13-87,83.36-11.19,10.61-20.28,19.17-26.61,25-3.17,2.93-5.65,5.19-7.35,6.71a19.16,19.16,0,0,1-2.68,2.22,17.52,17.52,0,0,1,2.33-2.57c1.59-1.62,4-4,7-7,6.16-6,15.13-14.71,26.27-25.37C135.38,358.17,166.34,328.89,200.58,296.61Z" style="fill:#ebebeb"></path><path d="M193.6,288.61l100-68.66L323.78,199l8.16-5.75,2.11-1.52a5.86,5.86,0,0,0,.69-.55,4.7,4.7,0,0,0-.76.46l-2.16,1.44-8.26,5.63-30.21,20.93L194,289.17c-38.74,27.17-73.87,51.72-99.41,69.34-12.77,8.81-23.14,15.9-30.34,20.75-3.6,2.42-6.41,4.29-8.34,5.53a17.72,17.72,0,0,1-3,1.78,20,20,0,0,1,2.72-2.18c1.83-1.36,4.56-3.34,8.09-5.86,7.05-5,17.32-12.26,30.05-21.13C119.24,339.67,154.56,315.38,193.6,288.61Z" style="fill:#ebebeb"></path><path d="M188,279.66l109.92-52.78,33.23-16.16,9-4.45,2.32-1.19a6,6,0,0,0,.78-.43,4.15,4.15,0,0,0-.83.34l-2.37,1.09L331,210.4l-33.24,16.13c-28,13.77-66.69,32.77-109.42,53.75s-81.37,40-109.46,53.55c-14.05,6.79-25.44,12.23-33.34,15.93-4,1.85-7,3.27-9.14,4.21a19.68,19.68,0,0,1-3.26,1.31,17.47,17.47,0,0,1,3-1.75c2-1.07,5.05-2.61,8.94-4.57,7.79-3.92,19.11-9.51,33.13-16.35C106.25,318.92,145.09,300.23,188,279.66Z" style="fill:#ebebeb"></path><path d="M183.94,270l117.2-35.5,35.45-10.92,9.62-3,2.49-.82a5.09,5.09,0,0,0,.84-.32,6,6,0,0,0-.87.21l-2.53.73-9.66,2.89L301,234.11,184.16,270.65C138.57,284.94,97.26,297.82,67.3,307c-15,4.58-27.12,8.23-35.53,10.69-4.21,1.23-7.48,2.16-9.71,2.77a18.47,18.47,0,0,1-3.44.8A19.13,19.13,0,0,1,21.9,320c2.18-.75,5.41-1.81,9.58-3.16,8.33-2.69,20.42-6.5,35.38-11.14C96.78,296.38,138.19,283.8,183.94,270Z" style="fill:#ebebeb"></path><path d="M181.52,259.81l121.54-17.34,36.8-5.42,10-1.55,2.59-.43a6,6,0,0,0,.88-.19,7.51,7.51,0,0,0-.9.08l-2.61.34-10,1.39L303,242.09l-121.38,18.4c-47.36,7.22-90.26,13.69-121.35,18.2-15.54,2.25-28.13,4-36.84,5.18-4.36.58-7.74,1-10,1.27a19.39,19.39,0,0,1-3.53.27,19.6,19.6,0,0,1,3.45-.75c2.28-.42,5.64-1,10-1.68,8.67-1.4,21.23-3.33,36.77-5.65C91.12,272.69,134.07,266.53,181.52,259.81Z" style="fill:#ebebeb"></path><path d="M180.77,249.39l122.87,1,37.23.13,10.13,0,2.63,0a7.85,7.85,0,0,0,.9,0,5.27,5.27,0,0,0-.9-.06l-2.63-.06-10.13-.11L303.64,250l-122.87.07c-48,.07-91.38.06-122.82-.13-15.72-.09-28.44-.22-37.23-.37-4.4-.08-7.81-.16-10.13-.24a19.53,19.53,0,0,1-3.53-.25,18.72,18.72,0,0,1,3.53-.23c2.32-.07,5.73-.12,10.13-.16,8.79-.09,21.51-.12,37.23-.1C89.39,248.65,132.82,249,180.77,249.39Z" style="fill:#ebebeb"></path><path d="M181.71,239l121.22,19.34L339.69,264l10,1.48,2.6.35a5.06,5.06,0,0,0,.9.09,6,6,0,0,0-.88-.19l-2.59-.45-10-1.63L303,257.94,181.6,239.67c-47.39-7.1-90.28-13.59-121.31-18.47-15.51-2.44-28.06-4.46-36.72-5.93-4.33-.73-7.69-1.32-10-1.75a19.74,19.74,0,0,1-3.45-.78,18.21,18.21,0,0,1,3.53.3c2.3.28,5.68.73,10,1.34,8.7,1.23,21.27,3.09,36.8,5.47C91.57,224.59,134.41,231.4,181.71,239Z" style="fill:#ebebeb"></path><path d="M184.34,228.84l116.53,37.45,35.38,11.18,9.64,3,2.51.75a8.07,8.07,0,0,0,.87.22,4.61,4.61,0,0,0-.83-.33l-2.49-.83-9.59-3.12L301,265.92,184.11,229.51c-45.63-14.18-86.93-27.09-116.77-36.6-14.92-4.76-27-8.66-35.29-11.42-4.15-1.38-7.37-2.47-9.55-3.24a17.42,17.42,0,0,1-3.27-1.3,19.2,19.2,0,0,1,3.43.83c2.23.63,5.49,1.58,9.69,2.85,8.39,2.52,20.5,6.27,35.44,11C97.68,201,138.87,214.19,184.34,228.84Z" style="fill:#ebebeb"></path><path d="M188.59,219.24l109,54.6,33.1,16.4,9,4.39,2.36,1.12a5.13,5.13,0,0,0,.83.34,8.4,8.4,0,0,0-.77-.44l-2.32-1.2-9-4.53L297.73,273.5,188.26,219.85C145.52,198.94,106.85,180,78.94,166c-14-6.95-25.23-12.63-33-16.61-3.88-2-6.88-3.56-8.9-4.65A17.86,17.86,0,0,1,34,143a19.38,19.38,0,0,1,3.26,1.35c2.09.95,5.16,2.39,9.09,4.27,7.88,3.77,19.22,9.3,33.21,16.2C107.56,178.62,146.09,197.89,188.59,219.24Z" style="fill:#ebebeb"></path><path d="M194.36,210.39c38.56,27.45,73.44,52.3,98.73,70.31,12.67,8.92,22.92,16.15,30,21.17l8.21,5.69,2.15,1.46a7.2,7.2,0,0,0,.76.47,5.17,5.17,0,0,0-.69-.56l-2.09-1.53-8.12-5.82-30-21.19L193.93,211C155.12,183.88,120,159.3,94.7,141.37c-12.65-9-22.86-16.27-29.87-21.36-3.51-2.55-6.22-4.55-8-5.93a17.79,17.79,0,0,1-2.7-2.2,18,18,0,0,1,3,1.81c1.91,1.26,4.71,3.14,8.29,5.59,7.16,4.91,17.47,12.08,30.16,21C120.93,158.09,155.85,182.92,194.36,210.39Z" style="fill:#ebebeb"></path><path d="M201.49,202.52l86.16,84.21,26.24,25.4,7.18,6.86,1.89,1.76a4.84,4.84,0,0,0,.67.57,4.47,4.47,0,0,0-.59-.65l-1.82-1.83-7.07-7-26.22-25.41L201,203c-34-32.55-64.67-62.08-86.77-83.58-11-10.74-19.95-19.48-26-25.57-3.06-3-5.41-5.42-7-7a17.45,17.45,0,0,1-2.31-2.58,17.83,17.83,0,0,1,2.66,2.24c1.69,1.53,4.15,3.81,7.29,6.76,6.28,5.92,15.3,14.54,26.4,25.25C137.41,139.88,167.89,169.62,201.49,202.52Z" style="fill:#ebebeb"></path><path d="M209.81,195.8l71.48,96.08,21.81,29,6,7.85,1.58,2a6.22,6.22,0,0,0,.57.67,4.85,4.85,0,0,0-.48-.73l-1.5-2.08-5.86-7.93-21.79-29-72.39-95.45c-28.28-37.23-53.84-71-72.19-95.53-9.18-12.26-16.55-22.23-21.6-29.15-2.52-3.46-4.46-6.16-5.75-8a17.2,17.2,0,0,1-1.87-2.9,18.77,18.77,0,0,1,2.27,2.61c1.42,1.76,3.48,4.38,6.1,7.77,5.25,6.79,12.77,16.65,22,28.89C156.64,124.35,181.94,158.29,209.81,195.8Z" style="fill:#ebebeb"></path><path d="M219.11,190.42l55,105.64L290.91,328l4.64,8.65,1.23,2.23a6.33,6.33,0,0,0,.46.75,5.27,5.27,0,0,0-.36-.8l-1.14-2.28c-1-2-2.56-4.95-4.5-8.72l-16.8-31.94-56-105.15c-21.88-41-41.63-78.21-55.77-105.2C155.63,72,150,61.09,146.1,53.49c-1.93-3.8-3.4-6.76-4.38-8.78a18,18,0,0,1-1.37-3.13,16.5,16.5,0,0,1,1.82,2.91c1.12,1.95,2.72,4.85,4.77,8.59,4.08,7.49,9.9,18.37,17,31.84C178.22,111.85,197.68,149.18,219.11,190.42Z" style="fill:#ebebeb"></path><path d="M229.17,186.51l37,112.64,11.38,34.08c1.37,4,2.44,7.1,3.17,9.24.37,1,.65,1.83.86,2.4a6.62,6.62,0,0,0,.32.8,4.25,4.25,0,0,0-.22-.84c-.18-.57-.43-1.38-.75-2.42-.7-2.16-1.72-5.28-3-9.29L266.56,299c-9.75-28.77-23.21-68.45-38.08-112.31S200.16,103.2,190.63,74.4c-4.78-14.4-8.58-26.07-11.15-34.16-1.28-4-2.25-7.19-2.89-9.33a16,16,0,0,1-.83-3.31,17.9,17.9,0,0,1,1.32,3.16c.78,2.1,1.89,5.2,3.3,9.21,2.8,8,6.77,19.63,11.61,34C201.66,102.73,214.77,142.54,229.17,186.51Z" style="fill:#ebebeb"></path><path d="M239.76,184.17c7.07,45.62,13.47,86.91,18.1,116.83,2.39,14.92,4.33,27,5.67,35.38.7,4.15,1.24,7.38,1.62,9.61q.28,1.61.45,2.49a5.63,5.63,0,0,0,.19.85,4.94,4.94,0,0,0-.08-.86c-.08-.6-.2-1.43-.35-2.51l-1.46-9.63c-1.34-8.39-3.26-20.47-5.64-35.39-4.92-29.88-11.71-71.11-19.22-116.67S224.75,97.5,220,67.62c-2.35-14.94-4.2-27-5.41-35.41-.61-4.19-1-7.45-1.33-9.66a16.52,16.52,0,0,1-.28-3.39,18.22,18.22,0,0,1,.78,3.32c.43,2.19,1,5.42,1.75,9.59,1.46,8.34,3.48,20.41,5.9,35.34C226.29,97.28,232.73,138.56,239.76,184.17Z" style="fill:#ebebeb"></path><path d="M250.59,183.45c-.37,46.12-.7,87.86-1,118.12,0,15.09-.08,27.31-.11,35.79,0,4.21,0,7.48,0,9.73,0,1.09,0,1.93,0,2.54a8.08,8.08,0,0,0,0,.86,4.73,4.73,0,0,0,.06-.86c0-.61,0-1.44.06-2.53,0-2.26.06-5.53.11-9.74,0-8.48.07-20.7.13-35.79,0-30.26-.09-72-.15-118.13s-.11-87.85.06-118.07c.08-15.11.21-27.34.36-35.79.08-4.23.16-7.51.25-9.74a16.39,16.39,0,0,1,.26-3.39,18.39,18.39,0,0,1,.23,3.4c.07,2.22.14,5.5.18,9.73.1,8.45.14,20.68.12,35.79C251.3,95.6,251,137.35,250.59,183.45Z" style="fill:#ebebeb"></path><path d="M261.42,184.35c-7.82,45.5-14.9,86.69-20,116.54-2.48,14.9-4.49,27-5.89,35.34-.66,4.16-1.17,7.39-1.53,9.62-.15,1.08-.28,1.92-.36,2.51a4.67,4.67,0,0,0-.09.86,4.49,4.49,0,0,0,.2-.84c.11-.59.26-1.42.47-2.49.39-2.23.95-5.46,1.68-9.6,1.4-8.38,3.42-20.44,5.92-35.34,4.85-29.9,11.53-71.14,18.93-116.71S274.78,97.43,279.84,67.6c2.52-14.91,4.62-27,6.14-35.3.76-4.17,1.37-7.39,1.82-9.58a16.16,16.16,0,0,1,.81-3.31,16.53,16.53,0,0,1-.31,3.39c-.29,2.21-.76,5.46-1.39,9.64-1.27,8.37-3.21,20.45-5.67,35.38C276.33,97.67,269.28,138.87,261.42,184.35Z" style="fill:#ebebeb"></path><path d="M272,186.87,233.09,298.92c-4.9,14.34-8.86,25.95-11.61,34-1.33,4-2.37,7.12-3.08,9.27-.34,1-.59,1.85-.78,2.42a5.13,5.13,0,0,0-.22.84,5.26,5.26,0,0,0,.33-.81c.21-.56.5-1.36.87-2.38l3.24-9.23c2.76-8.06,6.73-19.66,11.63-34,9.68-28.79,23-68.51,37.81-112.39s28.11-83.59,38-112.29c4.94-14.34,9-25.94,11.85-33.93,1.43-4,2.57-7.09,3.37-9.18a17.81,17.81,0,0,1,1.34-3.15,16.07,16.07,0,0,1-.86,3.3c-.64,2.14-1.64,5.28-3,9.31-2.62,8.07-6.51,19.72-11.39,34.08C300.89,103.53,287.18,143.14,272,186.87Z" style="fill:#ebebeb"></path><path d="M282,191,225.23,295.72l-17,31.84-4.56,8.69c-.5,1-.89,1.73-1.16,2.27a4,4,0,0,0-.36.79,6,6,0,0,0,.46-.74c.29-.53.71-1.27,1.25-2.23l4.7-8.62,17.05-31.82c14.28-27,34-64.16,55.74-105.27s41.46-78.29,55.91-105.13c7.22-13.43,13.12-24.26,17.25-31.72,2.07-3.73,3.7-6.62,4.83-8.56a17.14,17.14,0,0,1,1.84-2.91,18.67,18.67,0,0,1-1.39,3.13c-1,2-2.49,5-4.45,8.75-3.91,7.57-9.66,18.48-16.83,31.93C324.16,113,304.14,150.07,282,191Z" style="fill:#ebebeb"></path><path d="M291.17,196.49c-28.54,37.08-54.36,70.63-73.07,95-9.28,12.18-16.79,22-22,28.88-2.56,3.41-4.55,6.06-5.92,7.9l-1.52,2.07a5.2,5.2,0,0,0-.48.72,5.35,5.35,0,0,0,.57-.66l1.6-2,6-7.81,22-28.87,72.18-95.6c28.13-37.33,53.67-71.1,72.31-95.44,9.32-12.17,16.9-22,22.2-28.73,2.65-3.37,4.73-6,6.16-7.73a17.55,17.55,0,0,1,2.29-2.59,17.55,17.55,0,0,1-1.89,2.88c-1.3,1.84-3.26,4.52-5.81,8-5.09,6.89-12.54,16.8-21.81,29C345.52,125.86,319.72,159.44,291.17,196.49Z" style="fill:#ebebeb"></path><path d="M299.36,203.34l-87.54,82.88-26.41,25.24-7.12,6.91-1.83,1.82a4.8,4.8,0,0,0-.6.64,4.84,4.84,0,0,0,.67-.57l1.91-1.75,7.23-6.8,26.42-25.23,86.76-83.64c33.84-32.67,64.53-62.21,86.88-83.46,11.17-10.63,20.26-19.2,26.58-25.07,3.16-2.93,5.63-5.2,7.33-6.71a18.05,18.05,0,0,1,2.68-2.22A18.09,18.09,0,0,1,420,87.94c-1.59,1.62-4,4-7,7-6.15,6-15.12,14.72-26.24,25.39C364.48,141.69,333.56,171,299.36,203.34Z" style="fill:#ebebeb"></path><path d="M306.35,211.32l-99.89,68.79-30.17,21-8.15,5.77L166,308.38a4.78,4.78,0,0,0-.69.55,8.76,8.76,0,0,0,.76-.47l2.16-1.44,8.25-5.64,30.18-21,99.24-69.65c38.7-27.21,73.8-51.8,99.32-69.46,12.75-8.83,23.11-15.93,30.31-20.78,3.6-2.43,6.41-4.3,8.33-5.54a18.37,18.37,0,0,1,3-1.79,19.11,19.11,0,0,1-2.72,2.18c-1.83,1.37-4.55,3.35-8.07,5.87-7.06,5.05-17.31,12.29-30,21.17C380.64,160.17,345.36,184.51,306.35,211.32Z" style="fill:#ebebeb"></path><path d="M312,220.26,202.1,273.18l-33.2,16.2-9,4.47L157.58,295a6,6,0,0,0-.78.44,5.13,5.13,0,0,0,.83-.34L160,294l9.07-4.33,33.21-16.17,109.35-53.89C354.28,198.58,393,179.56,421,166c14-6.8,25.42-12.26,33.32-16,4-1.86,7-3.28,9.13-4.22a18.58,18.58,0,0,1,3.26-1.31,19.29,19.29,0,0,1-3,1.75c-2,1.07-5,2.62-8.93,4.58-7.79,3.93-19.1,9.53-33.11,16.39C393.65,180.91,354.84,199.64,312,220.26Z" style="fill:#ebebeb"></path><path d="M316,229.94,198.89,265.58l-35.45,11-9.61,3.06-2.49.82a8.1,8.1,0,0,0-.84.31,4.83,4.83,0,0,0,.88-.21l2.52-.73,9.66-2.9L199,266l116.8-36.68c45.57-14.35,86.86-27.28,116.81-36.46,15-4.6,27.12-8.27,35.53-10.74,4.2-1.23,7.47-2.17,9.7-2.78a19,19,0,0,1,3.44-.81,18.56,18.56,0,0,1-3.28,1.27c-2.18.76-5.41,1.83-9.58,3.18-8.33,2.71-20.41,6.53-35.37,11.18C403.15,203.43,361.76,216.06,316,229.94Z" style="fill:#ebebeb"></path><path d="M318.47,240.11,197,257.59l-36.79,5.48-10,1.56-2.59.43a7.3,7.3,0,0,0-.88.18,4.65,4.65,0,0,0,.9-.07l2.61-.34,10-1.41L197,258l121.34-18.55c47.36-7.27,90.25-13.8,121.33-18.34,15.54-2.27,28.13-4.06,36.84-5.22,4.35-.59,7.74-1,10-1.29a18.2,18.2,0,0,1,3.52-.27,19.41,19.41,0,0,1-3.45.76c-2.27.41-5.63,1-10,1.68-8.67,1.41-21.23,3.36-36.76,5.7C408.85,227.11,365.91,233.32,318.47,240.11Z" style="fill:#ebebeb"></path></g><g id="freepik--light-bulb-3--inject-203"><path d="M454.84,401.65a55.84,55.84,0,1,0-93.53,12.05c-2.8,6-6,12.76-6,12.76l44.34,20.72s3.62-7,6.7-13.38A55.83,55.83,0,0,0,454.84,401.65Z" style="fill:#18A999"></path><path d="M373.16,434.46c7.37-16.42,15.81-32.35,22.9-48.9,1.45-3.4,2.87-6.83,4.06-10.34,1.65-4.9,3-10.64-.55-15.07a7.57,7.57,0,0,0-5.89-3,10.41,10.41,0,0,0-6.74,3.12A24.47,24.47,0,0,0,380,372.64a25.35,25.35,0,0,0,8.4,25.52,25.72,25.72,0,0,0,26.27,4c8.11-3.51,15.18-11.89,15.5-21,.14-3.84-1.15-8.46-4.92-10.2-4.54-2.1-8.91,1-11.68,4.49-3,3.66-5.22,8-7.5,12.06-2.56,4.6-5,9.27-7.37,14-4.9,9.65-9.57,19.41-14.48,29.05-1.09,2.13-2.18,4.25-3.3,6.37-.75,1.42,1.4,2.68,2.16,1.26,9-17,16.76-34.64,26.27-51.37,2.14-3.74,4.22-7.86,7.24-11,1.4-1.46,3.19-2.89,5.29-3a4.88,4.88,0,0,1,4.43,2.37c2.11,3.36,1.51,7.73.22,11.26a24,24,0,0,1-7.21,10,23,23,0,0,1-37.53-17.62,24.13,24.13,0,0,1,3.44-12.48c2-3.36,6.64-8.76,11-5.88,4.63,3.06,3,9.48,1.55,13.78-1,3.07-2.24,6.09-3.49,9.07-6.49,15.37-14.19,30.21-21.23,45.33Q372,430.9,371,433.2c-.65,1.46,1.51,2.73,2.16,1.26Z" style="fill:#263238"></path><path d="M367.17,414.44a5.76,5.76,0,0,1-.5-.47c-.31-.33-.8-.79-1.36-1.43a49.84,49.84,0,0,1-4.46-5.72,52.77,52.77,0,0,1-5-9.51,52,52,0,0,1-1-36.38,50.12,50.12,0,0,1,2.82-6.68c.38-.77.74-1.33.95-1.73a4.85,4.85,0,0,1,.36-.58,5.69,5.69,0,0,1-.29.62c-.19.41-.52,1-.87,1.76a54.46,54.46,0,0,0-2.7,6.7,52.74,52.74,0,0,0-2.32,10.44,53.37,53.37,0,0,0,12.64,41c.54.66,1,1.14,1.3,1.48A4.33,4.33,0,0,1,367.17,414.44Z" style="fill:#263238"></path><path d="M365.63,343.3a11,11,0,0,1-1.66,2.37,10.71,10.71,0,0,1-2,2.12,10.15,10.15,0,0,1,1.66-2.37A10.38,10.38,0,0,1,365.63,343.3Z" style="fill:#263238"></path><path d="M443.75,410.79a3.09,3.09,0,0,1,.33-.5l1-1.37c.22-.3.47-.62.73-1s.51-.78.8-1.22c.55-.89,1.25-1.86,1.84-3,.32-.57.65-1.18,1-1.81s.62-1.32,1-2c.69-1.39,1.23-3,1.85-4.58a58.1,58.1,0,0,0,2.57-11,59.22,59.22,0,0,0,.22-11.3c-.2-1.72-.34-3.37-.67-4.89-.15-.75-.25-1.5-.43-2.19s-.35-1.37-.51-2c-.29-1.29-.72-2.4-1-3.4-.17-.49-.31-1-.47-1.38l-.47-1.13-.64-1.57a4.18,4.18,0,0,1-.2-.57,3.61,3.61,0,0,1,.27.53c.18.39.42.9.71,1.55.16.34.33.71.51,1.12s.32.88.5,1.38a32.33,32.33,0,0,1,1.1,3.39c.18.64.36,1.31.55,2s.29,1.44.45,2.2c.34,1.52.5,3.18.71,4.92a57.56,57.56,0,0,1-.19,11.38,58.14,58.14,0,0,1-2.62,11.07,49.63,49.63,0,0,1-1.9,4.59c-.34.7-.63,1.39-1,2l-1,1.81a34.75,34.75,0,0,1-1.91,3c-.29.44-.55.85-.82,1.21l-.77,1-1.07,1.32A4,4,0,0,1,443.75,410.79Z" style="fill:#263238"></path><g id="freepik--2ggvdetif--inject-203"><path d="M355.69,458a15.59,15.59,0,0,1,1.7,3.92,3.27,3.27,0,0,0,1.83,2.22l8.92,4.16a3.32,3.32,0,0,0,3.12-.15,6.15,6.15,0,0,1,4.16-.95Z" style="fill:#455a64"></path></g><path d="M357.62,428.6c-.09.18-4.52,15.09-6.21,20.79a7.25,7.25,0,0,0,1.33,6.77A6.93,6.93,0,0,0,355,457.9l19.53,9.1s5.1,2.38,8.14-1.12c3.21-3.7,13.32-19.37,13.32-19.37Z" style="fill:#263238"></path><rect x="367.12" y="435.86" width="2.25" height="39.66" rx="1.07" transform="translate(-199.89 598.82) rotate(-65.2)" style="fill:#e0e0e0"></rect><path d="M384.81,464.59a1.29,1.29,0,0,0,.8,0,1.09,1.09,0,0,0,.63-.7,1,1,0,0,0-.32-1.16c-1.84-.89-4.61-2.1-8-3.65L351.61,447a.87.87,0,0,0-.84,0,.89.89,0,0,0-.3.31,1.5,1.5,0,0,0-.16.43.89.89,0,0,0,.29.78,5.41,5.41,0,0,0,.87.44l3.7,1.71,7,3.24,11.81,5.5,8,3.74,2.16,1,.55.28.19.11-.2-.07-.57-.25-2.19-1-8-3.63L362,454.24,355,451l-3.7-1.71-.47-.21a1.8,1.8,0,0,1-.49-.29,1.25,1.25,0,0,1-.41-1.1,1.62,1.62,0,0,1,.2-.56,1.29,1.29,0,0,1,.43-.44,1.24,1.24,0,0,1,1.18-.07l26.29,12.2c3.36,1.59,6.08,2.82,8,3.78a1.13,1.13,0,0,1,.33,1.31,1.19,1.19,0,0,1-.71.73A.94.94,0,0,1,384.81,464.59Z" style="fill:#263238"></path><rect x="369.17" y="430.68" width="2.25" height="41.25" rx="1.07" transform="translate(-194.71 598.13) rotate(-65.2)" style="fill:#e0e0e0"></rect><path d="M387.58,460.53a1.15,1.15,0,0,0,.82,0,1.11,1.11,0,0,0,.63-.75,1,1,0,0,0-.44-1.17l-8.3-3.77-27.35-12.59a.9.9,0,0,0-.87.07,1,1,0,0,0-.3.34,1.17,1.17,0,0,0-.14.45.91.91,0,0,0,.37.78c.26.15.64.3.95.45l3.83,1.77,7.26,3.37,12.27,5.71,8.26,3.88,2.24,1.07.57.29.2.11s-.08,0-.21-.07l-.59-.26-2.27-1-8.31-3.77-12.3-5.65-7.27-3.34-3.84-1.77c-.33-.17-.63-.27-1-.49a1.24,1.24,0,0,1-.53-1.09,1.41,1.41,0,0,1,.18-.59,1.27,1.27,0,0,1,.41-.48,1.28,1.28,0,0,1,1.23-.1l27.31,12.68c3.49,1.64,6.31,3,8.27,3.89a1.15,1.15,0,0,1,.47,1.33,1.24,1.24,0,0,1-.71.78A.94.94,0,0,1,387.58,460.53Z" style="fill:#263238"></path><path d="M390.08,456.35l-36.43-16.83a1.08,1.08,0,0,1-.52-1.42l.05-.1a1.08,1.08,0,0,1,1.42-.53L391,454.31a1.07,1.07,0,0,1,.52,1.42l-.05.1A1.06,1.06,0,0,1,390.08,456.35Z" style="fill:#e0e0e0"></path><path d="M390.08,456.35a1.1,1.1,0,0,0,.85,0,1.11,1.11,0,0,0,.62-.78,1,1,0,0,0-.52-1.16l-8.5-3.87-28-12.88a.91.91,0,0,0-.89.08,1,1,0,0,0-.3.36,1,1,0,0,0-.12.46.88.88,0,0,0,.43.77c.29.15.65.31,1,.46l3.93,1.82L366,445l12.57,5.85,8.45,4,2.3,1.1.59.29.19.11-.21-.07-.61-.27-2.32-1-8.5-3.87-12.6-5.78-7.43-3.42-3.93-1.81c-.34-.16-.66-.3-1-.48a1.27,1.27,0,0,1-.61-1.09,1.44,1.44,0,0,1,.16-.6,1.28,1.28,0,0,1,.42-.5,1.25,1.25,0,0,1,1.25-.12l28,13,8.46,4a1.12,1.12,0,0,1,.56,1.31,1.25,1.25,0,0,1-.7.82A1,1,0,0,1,390.08,456.35Z" style="fill:#263238"></path><rect x="373.26" y="420.58" width="2.25" height="43.89" rx="1.07" transform="translate(-184.37 596.75) rotate(-65.2)" style="fill:#e0e0e0"></rect><path d="M392.87,452.3a1.14,1.14,0,0,0,.88,0,1.17,1.17,0,0,0,.61-.83,1,1,0,0,0-.65-1.15l-8.82-4-29.06-13.36a.88.88,0,0,0-.91.1,1.08,1.08,0,0,0-.39.87.9.9,0,0,0,.52.75l1,.48,4.07,1.88,7.71,3.57,13,6.07,8.77,4.12,2.38,1.13.62.31.2.11-.22-.08L392,452l-2.41-1.07-8.82-4-13.06-6L360,437.32l-4.07-1.88-1-.48a1.27,1.27,0,0,1-.73-1.06,1.21,1.21,0,0,1,.13-.65,1.33,1.33,0,0,1,.4-.53,1.25,1.25,0,0,1,1.29-.14L385,446l8.78,4.12a1.13,1.13,0,0,1,.69,1.3,1.25,1.25,0,0,1-.68.88,1.16,1.16,0,0,1-.69.06A.9.9,0,0,1,392.87,452.3Z" style="fill:#263238"></path><path d="M358.31,414.27c-.17.36-3.34,9.27-5,13.85a5.81,5.81,0,0,0,.55,5.05l1.39,2.22L393,453l2.55-.35a5.83,5.83,0,0,0,4.26-2.88l7.3-12.72Z" style="fill:#18A999"></path><g style="opacity:0.30000000000000004"><path d="M352.05,449.35a53.92,53.92,0,0,0,10.84,6.12c3.23,1.49,6.35,3,9.88,4.61,2.59,1.14,5,2.11,7.61,3.19a7.91,7.91,0,0,0,3.27.75Z"></path></g><g style="opacity:0.30000000000000004"><path d="M352.76,444.31a62.9,62.9,0,0,0,11.72,6.53c3.48,1.61,6.84,3.29,10.65,5,2.78,1.24,5.39,2.3,8.19,3.47a8.79,8.79,0,0,0,3.51.85Z"></path></g><g style="opacity:0.30000000000000004"><path d="M354.79,440a62.34,62.34,0,0,0,11.72,6.53c3.48,1.61,6.85,3.29,10.65,5,2.79,1.24,5.39,2.3,8.2,3.47a8.78,8.78,0,0,0,3.5.85Z"></path></g><g style="opacity:0.30000000000000004"><path d="M356.82,435.59a63.25,63.25,0,0,0,11.72,6.54c3.48,1.6,6.85,3.28,10.65,5,2.79,1.23,5.39,2.29,8.2,3.46a8.78,8.78,0,0,0,3.5.85Z"></path></g><g style="opacity:0.30000000000000004"><path d="M358.31,414.27c-.17.36-3.34,9.27-5,13.85a5.81,5.81,0,0,0,.55,5.05l1.39,2.22L393,453l2.55-.35a5.83,5.83,0,0,0,4.26-2.88l7.3-12.72Z"></path></g><path d="M398.07,451.15c0,.09-10.17-4.54-22.63-10.35S352.93,430.21,353,430.12s10.17,4.54,22.63,10.35S398.11,451.06,398.07,451.15Z" style="fill:#263238"></path><path d="M407,436.66c0,.11-11.07-4.88-24.62-11.14s-24.5-11.41-24.46-11.51,11.07,4.89,24.62,11.14S407,436.56,407,436.66Z" style="fill:#263238"></path><polygon points="425.95 338.13 416.48 350.89 408.86 355.86 399.66 353.27 396.26 348.31 378.31 350.56 387.15 332.86 382.62 332.14 389.56 330.11 411.77 328.19 420.5 336.99 425.95 338.13" style="opacity:0.2"></polygon><polygon points="369.79 417.93 378.31 396.26 367.17 373.54 375.42 360.33 389.14 351.94 413.66 363.39 443.75 368.21 442.1 391.12 430.64 411.2 398.07 421.33 394.49 431.41 369.79 417.93" style="fill:#18A999;opacity:0.6000000000000001"></polygon></g><g id="freepik--light-bulb-2--inject-203"><polygon points="207.45 244.33 212.04 215.92 247.34 199.84 257.23 164.18 287.94 139.47 306.66 170.89 340.55 141.23 359.67 160.92 336.77 240.78 283.56 278.36 239.89 276.01 207.45 244.33" style="fill:#18A999"></polygon><polygon points="207.45 244.33 212.04 215.92 247.34 199.84 257.23 164.18 287.94 139.47 306.66 170.89 340.55 141.23 359.67 160.92 336.77 240.78 283.56 278.36 239.89 276.01 207.45 244.33" style="opacity:0.2"></polygon><path d="M377.36,216.54a116.5,116.5,0,0,0-48.91-98.36L342,153.59,331,180.07H318.66l-14.12,13.06-15.54,29-36,4.59-16.59,28.6-10.24-6.71-4.94-24.36L204.27,220l-21.54,4.24-13.06-31.07S154.74,186,148,183.45a116.58,116.58,0,0,0,60,133.74c-.4,13.81-.85,29.41-.85,29.41l102.16,2.95s1.1-16.48,1.75-31.21A116.57,116.57,0,0,0,377.36,216.54Z" style="fill:#18A999"></path><path d="M331,180.07,342,153.59l-13.52-35.41s5.1,10.18,9.36,19.88c3.71,8.45,6.67,16.58,6.61,16.78-1.59,4.84-10.15,25.84-10.15,25.84l-3.25-.61" style="opacity:0.30000000000000004"></path><path d="M274.14,350.25c.55-18.25.46-36.53.52-54.79.06-20,.12-40.09.85-60.12.31-8.25.72-16.5,1.49-24.73.39-4.12.85-8.25,1.58-12.34,1-5.59,2.62-11.49,6.35-15.93,3.25-3.86,8.16-6.76,13.34-6.48s9.14,4.2,11.52,8.59c4.66,8.61,5.45,19.55,4,29.07a56.47,56.47,0,0,1-11.82,26.84,51.23,51.23,0,0,1-25.27,16.73,56.57,56.57,0,0,1-30.62.34,51,51,0,0,1-25.31-15.9,56.51,56.51,0,0,1-12.68-26.83c-1.71-9.49-1.19-20.29,3.43-28.92,2.24-4.17,5.46-8.14,9.83-10.18a12.44,12.44,0,0,1,12.37,1.06c3.54,2.45,5.69,6.57,7.08,10.54a60.72,60.72,0,0,1,2.81,13.54c2.31,21.19,2.79,42.58,3.11,63.88.34,22.78.26,45.57.72,68.35q.15,7.5.41,15c.06,1.61,2.56,1.62,2.5,0-.83-23.12-.74-46.27-1-69.41s-.5-46.14-2.44-69.11c-.79-9.45-1.32-19.65-6-28.13a18,18,0,0,0-9.27-8.53,15.15,15.15,0,0,0-13.44,1.68c-8.73,5.59-12.43,16.35-13.27,26.2a58.09,58.09,0,0,0,5.77,30A55.57,55.57,0,0,0,231,253.6a57.87,57.87,0,0,0,61.27-1,55.17,55.17,0,0,0,19.45-23.41,58.16,58.16,0,0,0,4.85-30c-1.06-9.45-4.66-22.09-14.93-25.21-5-1.53-10.54.1-14.67,3.15-4.64,3.42-7.49,8.46-9.19,13.89a83.92,83.92,0,0,0-2.83,15.58c-.43,3.84-.75,7.7-1,11.56-1.37,19.76-1.53,39.6-1.66,59.4-.14,20.19,0,40.39-.34,60.58q-.09,6.09-.26,12.17c-.05,1.61,2.45,1.61,2.5,0Z" style="fill:#263238"></path><polygon points="316.72 181.87 304.54 193.13 291.06 220.85 252.99 226.67 236.4 255.27 226.16 248.56 221.22 224.2 205.73 220.33 219.57 260.12 231.38 264.98 233.9 347.37 283.56 348.8 283.56 276.17 329.3 236.7 316.72 181.87" style="fill:#18A999;opacity:0.6000000000000001"></polygon><polygon points="322.62 294.98 322.24 280.59 312.64 279.5 322.69 276.56 331.92 260.21 328.31 235.69 342.43 241.87 359.67 237.8 355.7 241.16 355 264.86 324.87 288.23 322.62 294.98" style="opacity:0.2"></polygon><path d="M148,183.45a16.62,16.62,0,0,1,1.78,2.13l0-.05c2.11,1,5.45,2.69,9.18,4.62s7.24,3.77,9.29,4.9l-.19,0a14.86,14.86,0,0,1,1.62-2,14.51,14.51,0,0,1-1.37,2.15l-.08.1-.12-.06c-2.11-1-5.54-2.73-9.39-4.71s-7-3.67-9.09-4.8l0,0,0,0A20.51,20.51,0,0,1,148,183.45Z" style="fill:#263238"></path><path d="M182.73,224.2a2.5,2.5,0,0,1-.2.69l-.73,1.89-.11.3-.14-.3c-1.33-2.9-3.68-8.29-6.33-14.46-2-4.7-3.81-9-5.08-12.07l-1.49-3.69a8.33,8.33,0,0,1-.48-1.37,6.64,6.64,0,0,1,.67,1.29l1.64,3.62c1.36,3.07,3.21,7.31,5.22,12,2.64,6.17,4.91,11.59,6.1,14.56h-.25c.34-.74.62-1.35.84-1.85A2.86,2.86,0,0,1,182.73,224.2Z" style="fill:#263238"></path><path d="M204.27,220a12.8,12.8,0,0,1,0,2.34v.11l-.12,0c-2.18.51-5.78,1.28-9.86,2.1-3.36.67-6.41,1.26-8.62,1.65-1.11.2-2,.36-2.63.45a3.38,3.38,0,0,1-1,.09,3.48,3.48,0,0,1,.93-.29l2.59-.61c2.2-.49,5.23-1.13,8.59-1.8,4.09-.82,7.71-1.51,9.91-1.88l-.12.14A12.23,12.23,0,0,1,204.27,220Z" style="fill:#263238"></path><path d="M221.22,224.2a9.46,9.46,0,0,1-1.11,1.62l-.06.07H220c-1.6-.28-4.11-.77-6.92-1.36-2.43-.51-4.63-1-6.22-1.39a13.59,13.59,0,0,1-2.54-.72,13.22,13.22,0,0,1,2.62.36c1.6.29,3.81.73,6.25,1.24,2.81.59,5.3,1.16,6.87,1.55l-.15.06A8.28,8.28,0,0,1,221.22,224.2Z" style="fill:#263238"></path><path d="M236.43,255.45a5.21,5.21,0,0,1-1-.33l-2.61-1.07c-2.23-.93-5.34-2.26-9-3.83l-.13-.06,0-.13c-.28-1.7-.59-3.54-.91-5.44-.87-5.2-1.62-9.91-2.14-13.33-.23-1.63-.43-3-.58-4a9,9,0,0,1-.15-1.49,7.41,7.41,0,0,1,.35,1.46c.19,1,.44,2.4.75,4,.61,3.4,1.42,8.1,2.28,13.3.31,1.91.61,3.75.89,5.45l-.14-.19c3.59,1.6,6.68,3,8.87,4l2.55,1.2A4.26,4.26,0,0,1,236.43,255.45Z" style="fill:#263238"></path><path d="M342,153.59a2.58,2.58,0,0,1,.64.26l1.76.86.11.06-.05.12c-1,2.78-2.85,7.69-5,13.27-2,5.19-3.84,9.78-5,12.57l0,.13-.12,0-2.38-.52a3.19,3.19,0,0,1-.83-.24,3.27,3.27,0,0,1,.86.08l2.41.38-.17.09c1-2.84,2.78-7.46,4.79-12.65,2.17-5.58,4.12-10.46,5.25-13.18l.07.17-1.7-1A2.63,2.63,0,0,1,342,153.59Z" style="fill:#263238"></path><path d="M344.29,154.84a9.92,9.92,0,0,1-.61-1.45c-.39-1-.9-2.38-1.51-4-1.3-3.38-2.92-8.1-5.33-13.06l-6-12.79c-.72-1.58-1.32-2.89-1.79-3.89a9.06,9.06,0,0,1-.59-1.46,10.21,10.21,0,0,1,.78,1.37l1.94,3.82c1.61,3.24,3.81,7.73,6.14,12.73a121.37,121.37,0,0,1,5.2,13.16c.59,1.71,1.05,3.1,1.36,4.06A7.79,7.79,0,0,1,344.29,154.84Z" style="fill:#263238"></path><path d="M359.67,237.8s0,.09-.13.24l-.45.66-1.79,2.54,0-.07c-.06,4.91-.25,14.1-.52,25.09v.12l-.1.07-6.17,4.71c-9.94,7.58-18.75,14.25-24.08,18.23l0,0c-1.18,1.76-2.13,3.16-2.82,4.17l-.76,1.1a2.23,2.23,0,0,1-.29.36,1.76,1.76,0,0,1,.22-.41l.7-1.13,2.7-4.25,0,0,0,0c5.25-4.09,14-10.82,24-18.4l6.17-4.7-.1.19c.3-11,.59-20.17.79-25.08v0l0,0,1.88-2.46.5-.63A1,1,0,0,1,359.67,237.8Z" style="fill:#263238"></path><path d="M152.1,193.3l13.26,6.61,15.06,34,9.09-1.38-26.79,19.84,24.42,38s-28.33-20.1-33.32-50.2S152.1,193.3,152.1,193.3Z" style="fill:#fff;opacity:0.2"></path><path d="M333,229.65l11.29,6,20.38-3s7-19,6.86-33.53-19.27-50.56-19.27-50.56l-8,39.81-21.67.87-3.94,11.62Z" style="fill:#fff;opacity:0.2"></path><path d="M377.36,216.54s-.14,3-.55,8.79a122.51,122.51,0,0,1-5.3,24.73,117.84,117.84,0,0,1-19,35.23l-3.79,4.64c-1.37,1.5-2.8,3-4.23,4.53s-3,3-4.59,4.46l-2.39,2.23-2.58,2.1a117.36,117.36,0,0,1-23.74,15.26l.11-.16c-.55,9.82-1.13,20.29-1.74,31.22v.19h-.19l-102.16-2.92H207v-.23c.26-9.2.55-19.21.84-29.41l.13.23a119,119,0,0,1-30.12-22.05c-2.34-2.19-4.37-4.68-6.51-7.09-1.09-1.19-2-2.5-3-3.79l-2.95-3.88q-1.34-2-2.69-4.08c-.88-1.38-1.85-2.71-2.61-4.17-1.57-2.88-3.31-5.69-4.63-8.74a114.45,114.45,0,0,1-10.87-38.67c-.13-1.71-.27-3.41-.41-5.12l-.11-1.28v-1.29l0-2.57,0-5.17c.05-1.72.15-3.45.28-5.17a118.75,118.75,0,0,1,3.43-20.57l.1-.39.08-.28.27.1c3.72,1.46,7.33,3.09,10.93,4.72s7.17,3.29,10.71,5l.09,0,0,.09q6.6,15.72,13.06,31.07l-.29-.15,21.54-4.24h.06l.05,0L221.28,224l.15,0,0,.16q2.49,12.35,4.94,24.36l-.11-.16,10.23,6.71-.35.09,16.6-28.6.06-.1.12,0,36.37-5.25-.17.12L304.34,193l0,0,0,0,14.13-13.06.06,0H331l-.2.13,11-26.47v.14l-13.49-35.41-.21-.54.47.33a117.82,117.82,0,0,1,19,17c.67.75,1.37,1.47,2,2.23l1.85,2.29c1.23,1.51,2.47,3,3.53,4.54s2.2,3,3.2,4.55l2.86,4.56c.49.74.91,1.51,1.32,2.27s.82,1.51,1.23,2.25l1.21,2.22c.4.73.72,1.49,1.07,2.23q1.05,2.22,2,4.35c.61,1.44,1.16,2.88,1.72,4.27,1.18,2.76,1.95,5.54,2.83,8.12.46,1.29.75,2.6,1.08,3.85s.65,2.48,1,3.67a124.46,124.46,0,0,1,3,22.3c0,5.12,0,7.79,0,7.79s0-.67,0-2,0-3.26-.06-5.82a125.89,125.89,0,0,0-3-22.26,117.79,117.79,0,0,0-13.5-33.13l-2.86-4.54c-1-1.52-2.12-3-3.21-4.53s-2.3-3-3.52-4.53l-1.85-2.28c-.64-.76-1.33-1.47-2-2.22a117.68,117.68,0,0,0-18.93-16.94l.26-.2,13.53,35.4,0,.07,0,.07-10.93,26.49,0,.13h-12.5l.15-.05-14.12,13.06,0,0-15.16,28.28-.05.1-.12,0L253,226.91l.17-.12q-8.12,14-16.59,28.61l-.13.22-.22-.14L226,248.77l-.09-.06,0-.1q-2.43-12-4.94-24.36l.18.2-16.94-4.24h.11l-21.54,4.23-.2.05-.08-.2Q176,209,169.43,193.23l.13.14c-7.09-3.33-14.24-6.73-21.61-9.68l.35-.18-.1.39a116.79,116.79,0,0,0-3.42,20.48c-.13,1.72-.23,3.43-.28,5.15l0,5.14,0,2.57v1.28l.11,1.27c.13,1.7.27,3.4.41,5.1a113.79,113.79,0,0,0,10.81,38.5c1.32,3,3,5.83,4.61,8.7.76,1.46,1.72,2.78,2.6,4.15s1.78,2.72,2.68,4.07,1.95,2.58,2.93,3.86,1.92,2.59,3,3.77c2.13,2.41,4.15,4.89,6.47,7.07a118.61,118.61,0,0,0,30,22l.14.07v.16c-.3,10.19-.59,20.21-.86,29.4l-.23-.24,102.16,3-.2.18c.61-10.92,1.21-21.39,1.76-31.21v-.11l.1,0A117.72,117.72,0,0,0,334.75,303l2.57-2.09,2.39-2.23c1.56-1.49,3.19-2.86,4.58-4.43s2.86-3,4.22-4.51l3.8-4.62a118.35,118.35,0,0,0,19-35.12,124.11,124.11,0,0,0,5.39-24.68c.25-2.87.36-5.07.48-6.55S377.36,216.54,377.36,216.54Z" style="fill:#263238"></path><polygon points="149.69 185.67 168.17 195.19 181.71 226.84 204.27 222.41 219.86 225.82 223.9 249.84 236.01 255.2 226.16 248.56 221.31 224.32 204.27 219.97 182.73 224.2 169.67 193.13 148.04 183.19 149.69 185.67" style="opacity:0.30000000000000004"></polygon><g style="opacity:0.4"><polygon points="359.67 237.8 357.21 241.16 356.56 266.25 326.37 289.27 322.62 294.98 324.87 288.23 355 264.86 355.7 241.16 359.67 237.8"></polygon></g><path d="M243,255.2l13.15-24.37,33.07-6.77s-10.56,16.13-11.08,15.57S243,255.2,243,255.2Z" style="fill:#fff;opacity:0.2"></path><path d="M200.47,270.68a3.37,3.37,0,0,1-.05-.54c0-.41,0-.92-.06-1.54,0-1.41-.07-3.32-.11-5.65s-.08-5.24-.12-8.37a3.15,3.15,0,0,0-.72-2.08,4.43,4.43,0,0,0-2.14-1l-5.14-1.35-2-.53-.13,0,0-.12c-2.38-6.33-4.5-12-6.07-16.13-.72-2-1.32-3.64-1.76-4.85l-.45-1.32a1.37,1.37,0,0,1-.12-.47,2,2,0,0,1,.21.44c.15.34.33.77.54,1.28l1.92,4.79c1.6,4.14,3.77,9.77,6.21,16.07l-.18-.15,2,.53L197.4,251a4.87,4.87,0,0,1,2.37,1.15,3.61,3.61,0,0,1,.84,2.39c0,3.18,0,6,0,8.4s0,4.24-.05,5.65c0,.62,0,1.13,0,1.54A1.8,1.8,0,0,1,200.47,270.68Z" style="fill:#263238"></path><path d="M284.25,250.27a6.07,6.07,0,0,1,.12-1.22c.1-.79.28-1.91.53-3.3.48-2.78,1.25-6.61,2.25-10.8S289.2,227,290,224.3c.41-1.35.76-2.43,1-3.18a5.91,5.91,0,0,1,.45-1.14,5.9,5.9,0,0,1-.26,1.2c-.23.86-.51,1.94-.86,3.22-.73,2.73-1.72,6.49-2.72,10.67s-1.81,8-2.39,10.75c-.27,1.29-.51,2.38-.69,3.26A5.09,5.09,0,0,1,284.25,250.27Z" style="fill:#263238"></path><path d="M161.14,260.68a4.08,4.08,0,0,1-.31-.61l-.78-1.79c-.34-.77-.72-1.74-1.13-2.87s-.91-2.41-1.37-3.85c-1-2.86-2-6.35-2.92-10.23s-1.77-8.22-2.45-12.8-1-9-1.24-13-.16-7.62,0-10.64c0-.76.07-1.48.12-2.16s.13-1.32.19-1.92c.11-1.2.22-2.23.36-3.06l.31-1.93a4.54,4.54,0,0,1,.14-.66,2.91,2.91,0,0,1,0,.68c-.06.49-.13,1.13-.21,1.93s-.2,1.87-.28,3.07c-.05.6-.1,1.24-.15,1.91s-.05,1.4-.08,2.15c-.16,3-.09,6.62.07,10.6s.64,8.36,1.28,12.93,1.51,8.87,2.39,12.76,1.87,7.36,2.81,10.23c.44,1.44.88,2.73,1.29,3.86s.73,2.11,1.05,2.9.51,1.35.69,1.82A4.56,4.56,0,0,1,161.14,260.68Z" style="fill:#fff"></path><path d="M207.06,225.48c0,.14-4.64,1.56-10.45,3.17s-10.55,2.81-10.59,2.67,4.64-1.56,10.45-3.17S207,225.34,207.06,225.48Z" style="fill:#fff"></path><path d="M279.74,226.85a1.65,1.65,0,0,1-.5.16l-1.46.36-5.36,1.21-8,1.74-4.71,1a10.87,10.87,0,0,0-2.37.74,5.62,5.62,0,0,0-2,1.56,43,43,0,0,0-2.75,4.32c-.85,1.44-1.68,2.82-2.47,4.14l-4.21,7-2.88,4.69-.81,1.26c-.19.29-.29.43-.31.42a2.53,2.53,0,0,1,.22-.47c.2-.35.43-.79.72-1.31l2.74-4.78,4.12-7,2.44-4.16a42.26,42.26,0,0,1,2.79-4.4,6.24,6.24,0,0,1,2.13-1.69,11.62,11.62,0,0,1,2.48-.77l4.72-1,8-1.63,5.4-1.05,1.48-.26A3.13,3.13,0,0,1,279.74,226.85Z" style="fill:#fff"></path><path d="M319.59,182.19a98.22,98.22,0,0,1-6.83,7.62c-3.89,4.11-7.12,7.36-7.22,7.26a99.4,99.4,0,0,1,6.84-7.62A101.68,101.68,0,0,1,319.59,182.19Z" style="fill:#fff"></path><path d="M334.61,183.37a48.27,48.27,0,0,1-7,.06,47,47,0,0,1-7-.47,48.14,48.14,0,0,1,7-.06A47.15,47.15,0,0,1,334.61,183.37Z" style="fill:#fff"></path><g id="freepik--2ggvdetif--inject-203"><path d="M233.67,420.23a31.45,31.45,0,0,1,6.5,6.11,6.86,6.86,0,0,0,5.36,2.73l20.56.58a6.9,6.9,0,0,0,5.84-2.87c1.57-2.2,4.34-4.77,7.18-5.27Z" style="fill:#455a64"></path></g><path d="M213,362.35c0,.42,3.85,32.66,5.33,45a15.13,15.13,0,0,0,8.17,11.88,14,14,0,0,0,5.82,1.45l45,1.26s11.75.34,14.67-8.91c3.08-9.74,9.48-48.17,9.48-48.17Z" style="fill:#263238"></path><path d="M295,408.8l-78.35-1.94a2.22,2.22,0,0,1-2.17-2.28v-.24a2.23,2.23,0,0,1,2.28-2.18l78.35,1.93a2.23,2.23,0,0,1,2.17,2.29v.24A2.23,2.23,0,0,1,295,408.8Z" style="fill:#e0e0e0"></path><path d="M295,408.8a2.61,2.61,0,0,0,1.53-.67,2.23,2.23,0,0,0,.64-1.85,2.1,2.1,0,0,0-1.58-2c-4.25-.17-10.58-.2-18.31-.39l-60.51-1.38a1.86,1.86,0,0,0-1.89,1.64,2.69,2.69,0,0,0,0,.95,1.87,1.87,0,0,0,1.2,1.26,10.65,10.65,0,0,0,2,.13l8.5.22,16.07.42,27.2.75,18.34.57,5,.2,1.3.07a1.53,1.53,0,0,1,.44.05,2.12,2.12,0,0,1-.44,0h-1.3l-5-.05-18.34-.33-27.21-.59-16.07-.38-8.5-.2-1.08,0a3.87,3.87,0,0,1-1.18-.14,2.62,2.62,0,0,1-1.69-1.78,3.45,3.45,0,0,1-.08-1.23,2.66,2.66,0,0,1,.45-1.19,2.61,2.61,0,0,1,2.21-1.13l60.52,1.61c7.75.25,14,.35,18.36.63a2.36,2.36,0,0,1,1.74,2.25,2.44,2.44,0,0,1-.76,2A2,2,0,0,1,295,408.8Z" style="fill:#263238"></path><path d="M296.92,398.72l-81.66-2a2.22,2.22,0,0,1-2.17-2.28v-.25a2.23,2.23,0,0,1,2.29-2.17L297,394a2.23,2.23,0,0,1,2.17,2.29v.24A2.23,2.23,0,0,1,296.92,398.72Z" style="fill:#e0e0e0"></path><path d="M296.92,398.72a2.41,2.41,0,0,0,1.58-.71,2.33,2.33,0,0,0,.59-1.95,2.1,2.1,0,0,0-1.82-1.87l-19-.36-62.87-1.44a1.84,1.84,0,0,0-1.61.86,1.73,1.73,0,0,0-.28.89,2.19,2.19,0,0,0,.1,1,1.83,1.83,0,0,0,1.36,1.18c.61.08,1.46,0,2.17.09l8.83.22,16.69.43,28.26.78,19.05.59,5.18.2,1.35.07a2.08,2.08,0,0,1,.45.05,1.33,1.33,0,0,1-.46,0h-1.34l-5.19-.06-19.05-.35-28.26-.62-16.7-.38-8.82-.22c-.78,0-1.44,0-2.32-.1a2.61,2.61,0,0,1-1.92-1.66,3,3,0,0,1-.14-1.27,2.53,2.53,0,0,1,.4-1.26,2.6,2.6,0,0,1,2.27-1.21l62.86,1.66c8.05.24,14.54.42,19.07.61a2.37,2.37,0,0,1,2,2.14,2.51,2.51,0,0,1-.71,2.08A2,2,0,0,1,296.92,398.72Z" style="fill:#263238"></path><path d="M298.27,388.64l-83.78-2.07a2.23,2.23,0,0,1-2.18-2.28V384a2.22,2.22,0,0,1,2.28-2.17l83.78,2.07a2.23,2.23,0,0,1,2.18,2.28v.24A2.23,2.23,0,0,1,298.27,388.64Z" style="fill:#e0e0e0"></path><path d="M298.27,388.64a2.49,2.49,0,0,0,1.6-.74,2.37,2.37,0,0,0,.55-2,2.1,2.1,0,0,0-2-1.8l-19.5-.36-64.36-1.48a1.85,1.85,0,0,0-1.63.89,1.9,1.9,0,0,0-.27.93,2.11,2.11,0,0,0,.14,1,1.86,1.86,0,0,0,1.46,1.12c.68,0,1.51,0,2.26.06l9,.23,17.08.45,28.94.79,19.5.6,5.3.2,1.38.08a1.74,1.74,0,0,1,.47.05,2.42,2.42,0,0,1-.47,0h-1.38l-5.31-.06-19.51-.36-28.93-.63-17.09-.4-9-.22c-.78,0-1.49,0-2.34-.07a2.63,2.63,0,0,1-2.06-1.58,2.88,2.88,0,0,1-.2-1.3,2.62,2.62,0,0,1,2.68-2.56l64.35,1.7,19.51.61a2.35,2.35,0,0,1,2.17,2.06A2.51,2.51,0,0,1,300,388,2,2,0,0,1,298.27,388.64Z" style="fill:#263238"></path><path d="M300.25,378.57l-87.18-2.15a2.23,2.23,0,0,1-2.17-2.29v-.24a2.22,2.22,0,0,1,2.28-2.17l87.18,2.14a2.24,2.24,0,0,1,2.17,2.29v.24A2.23,2.23,0,0,1,300.25,378.57Z" style="fill:#e0e0e0"></path><path d="M300.25,378.57a2.51,2.51,0,0,0,1.65-.79,2.43,2.43,0,0,0,.48-2.11,2.11,2.11,0,0,0-2.19-1.66L280,373.63l-66.77-1.53a1.84,1.84,0,0,0-1.66.95,2.33,2.33,0,0,0,0,2,1.89,1.89,0,0,0,1.62,1l2.39.06,9.38.23,17.72.46,30,.83,20.24.62,5.49.2,1.44.08a1.78,1.78,0,0,1,.48.05,2.56,2.56,0,0,1-.49,0h-1.43l-5.5-.07-20.24-.38-30-.66-17.72-.41-9.38-.23-2.39-.05a2.62,2.62,0,0,1-2.27-1.42,2.7,2.7,0,0,1-.29-1.35,2.8,2.8,0,0,1,.33-1.34,2.61,2.61,0,0,1,2.35-1.35L280,373.09l20.23.62a2.39,2.39,0,0,1,2.42,1.92,2.61,2.61,0,0,1-.59,2.25,2.23,2.23,0,0,1-1.28.68A1.41,1.41,0,0,1,300.25,378.57Z" style="fill:#263238"></path><path d="M202.48,334.31c0,.83,1.28,20.55,2,30.67a12.14,12.14,0,0,0,5.25,9.22l4.5,3.1,86.94,2.45,4.61-2.8a12.18,12.18,0,0,0,5.78-9L315,337.48Z" style="fill:#18A999"></path><g style="opacity:0.30000000000000004"><path d="M219.55,406.74c8.32,2.13,16.67,2.53,25.86,2.75,7.42.17,14.7.58,22.76.64,5.9.05,11.35-.1,17.24-.18,3-.05,6.27-.71,6.88-1.29Z"></path></g><g style="opacity:0.30000000000000004"><path d="M216.74,396.5c9,2.15,18,2.57,27.88,2.81,8,.19,15.84.61,24.53.69,6.37.06,12.23-.07,18.59-.15,3.21,0,6.75-.69,7.41-1.27Z"></path></g><g style="opacity:0.30000000000000004"><path d="M217,386.46c9,2.15,18,2.57,27.88,2.81,8,.19,15.84.61,24.53.69,6.37.06,12.24-.07,18.59-.15,3.22,0,6.75-.69,7.42-1.27Z"></path></g><g style="opacity:0.30000000000000004"><path d="M217.3,376.42c9,2.15,18,2.57,27.88,2.81,8,.19,15.85.61,24.54.69,6.36.06,12.23-.07,18.58-.15,3.22,0,6.76-.69,7.42-1.27Z"></path></g><g style="opacity:0.30000000000000004"><path d="M202.48,334.31c0,.83,1.28,20.55,2,30.67a12.14,12.14,0,0,0,5.25,9.22l4.5,3.1,86.94,2.45,4.61-2.8a12.18,12.18,0,0,0,5.78-9L315,337.48Z"></path></g><path d="M309.26,372c0,.21-23.27-.27-51.95-1.08s-51.93-1.64-51.93-1.85,23.26.28,51.95,1.09S309.27,371.83,309.26,372Z" style="fill:#263238"></path><path d="M314.35,336.89c0,.23-25.26-.2-56.42-.95s-56.42-1.56-56.42-1.79,25.25.19,56.42,1S314.35,336.65,314.35,336.89Z" style="fill:#263238"></path><path d="M132.65,163.44c-.26-.38-10.06,7.24-10.06,7.24l13.14,4.22S137,169.87,132.65,163.44Z" style="fill:#18A999"></path><path d="M185.3,191.46a39.09,39.09,0,0,0-3.58,2.58l4.67,1.5A5.46,5.46,0,0,0,185.3,191.46Z" style="fill:#18A999"></path><path d="M227.81,103.48a39.09,39.09,0,0,0-3.58,2.58l4.68,1.5A5.5,5.5,0,0,0,227.81,103.48Z" style="fill:#18A999"></path><path d="M224.23,106.06c.16,0,4.15.69,4.24.65a4.46,4.46,0,0,0,.39-.8,5.11,5.11,0,0,1,0,1.65Z" style="opacity:0.30000000000000004"></path><path d="M311.15,70.44c-.43.85-15.94,12.77-15.94,12.77s16.15,24,15.94,23.41,4-23.41,4.68-23.41,16.83-8.94,16.83-8.94Z" style="fill:#18A999"></path><polygon points="295.21 83.21 310.29 102.38 315.62 83.6 311.15 106.62 295.21 83.21" style="opacity:0.30000000000000004"></polygon><path d="M345.46,87.49l-4.22,23.32s11.39,5.55,11.94,5.44,6.61-12.42,6.61-12.42l-5-18.91Z" style="fill:#18A999"></path><path d="M346.36,87.24l-4,22.36h2.73l2.13,2.49,6.52,3.35a2.78,2.78,0,0,1-.59.81c-.83,0-7.51-3.36-11.94-5.44l4.22-23.32Z" style="opacity:0.30000000000000004"></path><path d="M168.73,58.05l-2.11,11.66s5.69,2.78,6,2.72,3.3-6.2,3.3-6.2l-2.51-9.46Z" style="fill:#18A999"></path><path d="M169.18,57.93l-2,11.18h1.37l1.06,1.24L172.88,72a1.33,1.33,0,0,1-.29.4,60.93,60.93,0,0,1-6-2.72l2.11-11.66Z" style="opacity:0.30000000000000004"></path><path d="M133,146.91c16-50.8,50.8-64.15,50.8-64.15L206.4,101.3l20,26-7.28,27.6-28.95,17.26-25.65.37-11.12-17.63L133,148.81Z" style="fill:#18A999"></path><polygon points="132.98 146.91 154.45 153.48 165.12 170.23 164.5 172.49 153.38 154.85 132.98 148.81 132.98 146.91" style="opacity:0.30000000000000004"></polygon><path d="M181.72,86c-1,.07-26.72,22.25-27.84,27.44l27.6,25,19.37-18.08-4.3-20.1Z" style="fill:#fff;opacity:0.2"></path><polygon points="219.1 154.85 190.23 169.73 165.12 170.23 164.5 172.49 190.15 172.12 219.1 154.85" style="opacity:0.30000000000000004"></polygon><path d="M153.38,154.86a7.83,7.83,0,0,1,1-1.46l.06.21c-2-.53-5.71-1.62-9.94-2.91-3.19-1-6.07-1.89-8.15-2.58a23.42,23.42,0,0,1-3.34-1.21,22.72,22.72,0,0,1,3.44.86c2.11.6,5,1.45,8.21,2.43,4.22,1.3,7.9,2.48,9.86,3.16l.19.06-.12.15A10.13,10.13,0,0,1,153.38,154.86Z" style="fill:#263238"></path><path d="M219.1,154.85a2.78,2.78,0,0,1-.55.34l-1.61.89-6.06,3.2L190.35,170l0,0h-.06l-5.92.12-19.2.34H165l-.06-.11-7.4-11.78-2-3.33-.52-.88a1.06,1.06,0,0,1-.16-.32,2.14,2.14,0,0,1,.22.28c.15.23.34.51.58.85.52.8,1.24,1.89,2.14,3.25l7.56,11.69-.2-.11,19.2-.41,5.92-.11-.11,0L210.73,159l6.12-3.07,1.66-.8A4.32,4.32,0,0,1,219.1,154.85Z" style="fill:#263238"></path><path d="M181.45,87a3.86,3.86,0,0,1-.56.45l-1.64,1.2c-.73.51-1.61,1.14-2.59,1.92s-2.15,1.62-3.35,2.65-2.57,2.1-3.94,3.35-2.83,2.61-4.34,4A118.68,118.68,0,0,0,148,121.78c-1.09,1.78-2.16,3.46-3,5.09s-1.73,3.15-2.45,4.56-1.33,2.7-1.88,3.83-1,2.12-1.34,2.93l-.82,1.87a3.21,3.21,0,0,1-.33.63,4.57,4.57,0,0,1,.23-.67c.19-.49.43-1.12.74-1.91s.72-1.83,1.25-3,1.09-2.47,1.82-3.88,1.48-3,2.41-4.6,1.93-3.34,3-5.14a123.73,123.73,0,0,1,7.92-11.12,122.07,122.07,0,0,1,9.21-10.08c1.52-1.44,3-2.83,4.39-4s2.74-2.33,4-3.32,2.4-1.84,3.41-2.59,1.91-1.37,2.65-1.86l1.71-1.12A3.23,3.23,0,0,1,181.45,87Z" style="fill:#fff"></path><path d="M195,78.09c-.63.69,18.94,16,18.94,16l1.78-27.53S205.39,66.54,195,78.09Z" style="fill:#18A999"></path><path d="M197.61,77.47s7.66-6.3,14.14-8.35l-4.6,14.09Z" style="fill:#fff;opacity:0.2"></path><path d="M210.45,69.17c.06.15-3.2,1.28-6.76,3.54s-6,4.68-6.12,4.56a7.76,7.76,0,0,1,1.51-1.68,29.14,29.14,0,0,1,4.33-3.32,28.51,28.51,0,0,1,4.88-2.46A7.73,7.73,0,0,1,210.45,69.17Z" style="fill:#fff"></path><path d="M235.9,47.35s25.51-10.65,49.79,0l-2.62,29.9-31.72,21L235.9,79.91Z" style="fill:#18A999"></path><path d="M235.9,79.91l15.23,15.31,5.93-5.37L262,88.53s18.93-12,19.07-12.39S285.69,48,285.69,48l-2.62,29.23-31.72,21Z" style="opacity:0.30000000000000004"></path><polygon points="245.94 90 245.94 82.76 253.62 76.43 255.47 56.77 251.94 75.42 244.38 82.76 243.34 87.39 245.94 90" style="opacity:0.30000000000000004"></polygon><path d="M240.29,48.65l-1,7.15-.79,14,2.86,9.72,8-5.7,4.94-21.23,1.17-6.47S242.44,48.46,240.29,48.65Z" style="fill:#fff;opacity:0.2"></path><path d="M283.07,77.25a2,2,0,0,1-.54-.23l-1.5-.78h.12c-2.73,1.87-8.53,5.71-15.26,10.08l-3.74,2.43,0,0h0l-4.95,1.29.09,0-5.77,5,.05-.11c0,1-.05,1.82-.07,2.48a3.49,3.49,0,0,1-.07.87,3.73,3.73,0,0,1-.08-.87c0-.66,0-1.48-.06-2.48v-.06l0,0,5.66-5.14,0,0,.05,0,4.94-1.33-.07,0,3.73-2.43c6.73-4.38,12.6-8.12,15.42-9.85l.06,0,.06,0,1.45.87A2.49,2.49,0,0,1,283.07,77.25Z" style="fill:#263238"></path><path d="M285.08,48.14c.14,0-.58,5.9-1.61,13.13s-2,13.08-2.14,13.06.59-5.9,1.62-13.13S284.94,48.12,285.08,48.14Z" style="fill:#263238"></path><path d="M269.33,44.7a5.5,5.5,0,0,1-1.19,0c-.76,0-1.87-.07-3.24-.09a77.18,77.18,0,0,0-21.1,2.6c-1.32.35-2.38.65-3.12.87a5.74,5.74,0,0,1-1.15.28,4.94,4.94,0,0,1,1.09-.47c.72-.28,1.77-.64,3.08-1a63.78,63.78,0,0,1,10.5-2.19,65.18,65.18,0,0,1,10.71-.43c1.38.07,2.48.16,3.24.25A5.13,5.13,0,0,1,269.33,44.7Z" style="fill:#fff"></path><path d="M256.78,74.25A26.09,26.09,0,0,1,257,69a26,26,0,0,1,.73-5.21,27.87,27.87,0,0,1-.21,5.25A27.29,27.29,0,0,1,256.78,74.25Z" style="fill:#fff"></path><polygon points="266.69 111.14 239 133.2 233.6 158.78 250.14 180.61 280.3 175.21 295.32 148.1 284.67 113.26 273.02 100.58 266.69 111.14" style="fill:#18A999"></polygon><path d="M239,133.2c-.14.63-2.72,23.7-2.72,23.7l12.15-5.51,3.91-5.19L249.21,151l1.6-.73-12.68,9.3,12.33,18L280,172.93l15.33-24.83-15,27.11-30.16,5.4L233.6,158.78Z" style="opacity:0.30000000000000004"></path><path d="M241.2,150.54c-.19-1-1.13-15,1.13-16.52s24.59-19.28,24.59-19.28l6.95-9.87s.94,14.73-1.88,19.1-14.09,17.64-14.56,18.33-1.58-4.94-1.58-4.94L247,148.62Z" style="fill:#fff;opacity:0.2"></path><path d="M292,151.91l-5.46-9.61-31.09,20.48s-5,14.58-4.72,15.38L280,172.93l12-21" style="opacity:0.2"></path><path d="M236.28,156.9c-.06,0,.51-5.31,1.26-11.86s1.4-11.84,1.46-11.84-.51,5.32-1.26,11.87S236.34,156.91,236.28,156.9Z"></path><path d="M266.69,111.14s.12-.25.39-.72.69-1.17,1.2-2.06l4.64-7.84.08-.14.11.12,11.69,12.64,0,0v0L295.55,148l0,.1-.05.09-15,27.11-.06.11-.13,0-11.12,2-19,3.4-.16,0-.09-.13-16.53-21.84-.06-.08,0-.11c2-9.43,3.84-18,5.44-25.57v-.06l.06,0L259.17,117l5.55-4.35,1.46-1.12c.33-.26.51-.38.51-.38s-.15.15-.47.41l-1.41,1.16-5.48,4.43-20.21,16.21.07-.11c-1.58,7.55-3.38,16.15-5.36,25.59l0-.19,16.56,21.81-.25-.1,19-3.41,11.12-2-.18.13,15-27.1,0,.19L284.5,113.32l0,.06-11.6-12.71.19,0c-2.05,3.35-3.65,6-4.75,7.79l-1.25,2C266.85,110.92,266.69,111.14,266.69,111.14Z" style="fill:#263238"></path><path d="M266.29,116a5.65,5.65,0,0,1-1,.81l-2.77,2.08c-2.35,1.75-5.58,4.18-9.08,7s-6.6,5.36-8.84,7.24L242,135.28a6.7,6.7,0,0,1-1,.78,5.34,5.34,0,0,1,.88-.93c.59-.57,1.46-1.38,2.55-2.36,2.17-2,5.25-4.59,8.76-7.37s6.77-5.18,9.18-6.85c1.2-.84,2.19-1.5,2.88-1.94A5.79,5.79,0,0,1,266.29,116Z" style="fill:#fff"></path><path d="M383.2,271.18l-1.41,3.47s3.79.83,4,.81a25.72,25.72,0,0,0,2.2-1.85l-1.67-2.81Z" style="fill:#18A999"></path><path d="M383.49,271.15l-1.32,3.32h.91l.71.37,2.17.5a.59.59,0,0,1-.2.12c-.27,0-2.49-.5-4-.81l1.41-3.47Z" style="opacity:0.30000000000000004"></path><polygon points="407.49 253.69 393.37 247.51 396.98 272.04 387.75 288.39 389.93 300.06 420.06 276.69 420.75 252.99 407.49 253.69" style="fill:#18A999"></polygon><path d="M406.42,233.54l-3,7.45s8.15,1.78,8.54,1.74,4.73-4,4.73-4l-3.59-6.05Z" style="fill:#18A999"></path><path d="M407.06,233.46l-2.84,7.15h1.95l1.52.79,4.67,1.07a1.5,1.5,0,0,1-.43.26c-.59,0-5.36-1.07-8.54-1.74l3-7.45Z" style="opacity:0.30000000000000004"></path><polygon points="389.93 300.06 389.93 287.63 398.91 272.32 395.72 249.6 393.37 247.51 396.98 272.04 387.75 288.39 389.93 300.06" style="opacity:0.4"></polygon></g><g id="freepik--light-bulb-1--inject-203"><polygon points="138.22 358.23 127.72 346.31 106.5 349.19 91.39 335.44 69.78 332.93 70.28 353.11 45.73 349.23 42.59 364.05 76.78 394.61 112.68 396.51 132.39 382.57 138.22 358.23" style="fill:#18A999"></polygon><polygon points="138.22 358.23 127.72 346.31 106.5 349.19 91.39 335.44 69.78 332.93 70.28 353.11 45.73 349.23 42.59 364.05 76.78 394.61 112.68 396.51 132.39 382.57 138.22 358.23" style="opacity:0.2"></polygon><path d="M50.69,395.23a64.3,64.3,0,0,1-6.09-60.32l4.11,20.51,12.9,9.15,5.77-3.64,10.43,1.95,15.77,8.95,18.17-8.45,16.17,8.48,2.8-6.15-4.85-12.83,6.67-7,11.3-4.36-3-18.35s4.88-7.72,7.25-10.89a64.37,64.37,0,0,1,11.31,80.12l9,13.49-46.84,31.43s-5.36-7.38-10-14.07A64.32,64.32,0,0,1,50.69,395.23Z" style="fill:#18A999"></path><path d="M139.89,426.32c-12.44-18.49-23.64-37.78-36.37-56.07-2.6-3.73-5.26-7.42-8.12-10.94-3.7-4.57-8.22-9.48-14.53-9.7a10,10,0,0,0-7.39,2.67,10.45,10.45,0,0,0-2.6,8.31c.46,5.81,3.4,11.41,7.15,15.76,7.62,8.84,19.66,13.14,31.07,10.35S130,375,132.64,363.59c2.57-11-1-24.41-10.16-31.57-4.22-3.3-10.86-5.65-15.56-1.91s-3.71,10.43-1.81,15.4c2,5.39,5,10.5,7.81,15.52,3.15,5.66,6.45,11.24,9.8,16.78,6.88,11.36,14,22.56,20.86,33.93q2.34,3.87,4.61,7.77a1.25,1.25,0,0,0,2.16-1.26c-12.14-20.88-25.81-40.86-37.27-62.14-2.53-4.7-5.45-9.57-6.66-14.81-.56-2.39-.77-5.15.47-7.38a6.51,6.51,0,0,1,6.25-3.2c5.56.28,10.14,4.72,13,9.13a30.51,30.51,0,0,1,4.8,15.3,28.94,28.94,0,0,1-46.12,24.12,29.66,29.66,0,0,1-9.9-12.68c-1.81-4.56-3.19-12.13,2.9-14.08s11.13,3,14.68,7.2c2.67,3.16,5.11,6.5,7.5,9.87,12.1,17.1,22.79,35.17,34.24,52.71,1.15,1.77,2.31,3.54,3.49,5.29.9,1.33,3.06.08,2.16-1.26Z" style="fill:#263238"></path><g id="freepik--2ggvdetif--inject-203"><path d="M176.18,448.83a17.67,17.67,0,0,0-1.24,4.77,3.79,3.79,0,0,1-1.7,2.85l-9.43,6.32a3.84,3.84,0,0,1-3.57.37,7.16,7.16,0,0,0-4.91-.35Z" style="fill:#455a64"></path></g><path d="M168.8,415.73c.12.19,7.8,16.39,10.74,22.58a8.39,8.39,0,0,1-.32,7.95,7.83,7.83,0,0,1-2.29,2.39c-4.05,2.7-20.63,13.81-20.63,13.81s-5.39,3.62-9.48.16c-4.3-3.64-18.6-19.71-18.6-19.71Z" style="fill:#263238"></path><rect x="138.62" y="447.17" width="45.72" height="2.6" rx="1.23" transform="translate(-221.28 164.39) rotate(-33.62)" style="fill:#e0e0e0"></rect><path d="M144.18,461.52a1.36,1.36,0,0,1-.91.14,1.25,1.25,0,0,1-.84-.67,1.16,1.16,0,0,1,.16-1.39c1.93-1.33,4.88-3.21,8.43-5.56l27.86-18.45a1,1,0,0,1,1-.09,1.17,1.17,0,0,1,.4.3,1.74,1.74,0,0,1,.25.46,1,1,0,0,1-.19.94,5.36,5.36,0,0,1-.91.66l-3.91,2.6-7.38,4.93-12.48,8.35-8.4,5.66L145,461l-.59.41-.19.15s.08,0,.22-.11L145,461l2.31-1.49,8.47-5.55,12.53-8.28,7.4-4.9,3.91-2.6.5-.33a2.29,2.29,0,0,0,.51-.41,1.45,1.45,0,0,0,.26-1.33,1.75,1.75,0,0,0-.33-.6,1.38,1.38,0,0,0-.56-.42,1.43,1.43,0,0,0-1.36.12l-27.79,18.55c-3.55,2.4-6.43,4.28-8.39,5.7a1.3,1.3,0,0,0-.15,1.56,1.36,1.36,0,0,0,.94.7A1.06,1.06,0,0,0,144.18,461.52Z" style="fill:#263238"></path><rect x="134.59" y="442.53" width="47.55" height="2.6" rx="1.23" transform="translate(-219.23 161.89) rotate(-33.62)" style="fill:#e0e0e0"></rect><path d="M140.31,457.39a1.28,1.28,0,0,1-.94.13,1.25,1.25,0,0,1-.85-.73,1.16,1.16,0,0,1,.3-1.41l8.78-5.77,28.94-19.17a1,1,0,0,1,1-.07,1.06,1.06,0,0,1,.4.33,1.39,1.39,0,0,1,.24.49,1,1,0,0,1-.29.95c-.26.22-.67.45-1,.68l-4.06,2.7-7.67,5.11c-4.87,3.27-9.27,6.2-13,8.68l-8.72,5.88-2.36,1.61-.61.43-.2.16s.08,0,.23-.12l.63-.4,2.4-1.55,8.8-5.76,13-8.6,7.68-5.1,4.06-2.69c.35-.25.67-.42,1.05-.73a1.45,1.45,0,0,0,.4-1.34,1.65,1.65,0,0,0-.3-.64,1.5,1.5,0,0,0-.56-.47,1.45,1.45,0,0,0-1.41.11l-28.87,19.26c-3.69,2.48-6.67,4.47-8.73,5.89a1.3,1.3,0,0,0-.3,1.59,1.39,1.39,0,0,0,.94.77A1,1,0,0,0,140.31,457.39Z" style="fill:#263238"></path><path d="M136.72,453.08l38.52-25.61a1.24,1.24,0,0,0,.34-1.71l-.07-.11a1.23,1.23,0,0,0-1.71-.34l-38.52,25.6a1.24,1.24,0,0,0-.34,1.71l.07.11A1.24,1.24,0,0,0,136.72,453.08Z" style="fill:#e0e0e0"></path><path d="M136.72,453.08a1.41,1.41,0,0,1-1,.12,1.32,1.32,0,0,1-.85-.77,1.17,1.17,0,0,1,.39-1.42l9-5.91,29.63-19.62a1,1,0,0,1,1-.06,1,1,0,0,1,.4.35,1.22,1.22,0,0,1,.22.5,1,1,0,0,1-.35,1c-.31.22-.69.46-1,.69L170,430.69l-7.85,5.23-13.28,8.88-8.93,6-2.41,1.66-.63.43c-.14.1-.21.16-.2.17L137,453l.64-.4,2.46-1.59,9-5.91,13.33-8.81,7.86-5.21,4.16-2.76c.36-.24.69-.45,1.07-.72a1.43,1.43,0,0,0,.5-1.34,1.57,1.57,0,0,0-.29-.67,1.48,1.48,0,0,0-.56-.49,1.45,1.45,0,0,0-1.45.08l-29.55,19.73-8.94,6a1.31,1.31,0,0,0-.4,1.6,1.41,1.41,0,0,0,.94.8A1.12,1.12,0,0,0,136.72,453.08Z" style="fill:#263238"></path><rect x="126.86" y="433.25" width="50.59" height="2.6" rx="1.23" transform="translate(-215.13 156.9) rotate(-33.62)" style="fill:#e0e0e0"></rect><path d="M132.83,449a1.33,1.33,0,0,1-1,.11,1.35,1.35,0,0,1-.85-.84,1.18,1.18,0,0,1,.54-1.42l9.34-6.13,30.73-20.36a1,1,0,0,1,1.06,0,1.3,1.3,0,0,1,.6.92,1,1,0,0,1-.46.94l-1.1.73-4.31,2.87-8.14,5.43-13.78,9.21-9.26,6.24-2.51,1.71-.65.46a1.06,1.06,0,0,0-.21.17l.24-.14.67-.42,2.55-1.64c2.22-1.47,5.41-3.56,9.34-6.13l13.82-9.14,8.16-5.41,4.31-2.86,1.1-.73a1.46,1.46,0,0,0,.65-1.33,1.61,1.61,0,0,0-.27-.72,1.48,1.48,0,0,0-.55-.53,1.43,1.43,0,0,0-1.49.07L140.7,440.43l-9.27,6.24a1.31,1.31,0,0,0-.56,1.61,1.45,1.45,0,0,0,.93.88,1.15,1.15,0,0,0,1-.2Z" style="fill:#263238"></path><path d="M165.47,399.53c.26.38,5.45,10,8.12,14.9a6.72,6.72,0,0,1,.26,5.85l-1.19,2.77-39.89,26.72-3,0a6.69,6.69,0,0,1-5.36-2.52l-10.56-13.2Z" style="fill:#18A999"></path><g style="opacity:0.30000000000000004"><path d="M178.81,438.38a62.88,62.88,0,0,1-11.27,8.89c-3.42,2.26-6.69,4.59-10.44,7-2.75,1.76-5.33,3.29-8.11,5a9,9,0,0,1-3.59,1.42Z"></path></g><g style="opacity:0.30000000000000004"><path d="M177.11,432.77a73,73,0,0,1-12.2,9.51c-3.68,2.44-7.21,5-11.25,7.54-3,1.9-5.74,3.56-8.72,5.4a10.34,10.34,0,0,1-3.84,1.58Z"></path></g><g style="opacity:0.30000000000000004"><path d="M174,428.16a71.45,71.45,0,0,1-12.19,9.51c-3.68,2.45-7.22,4.95-11.26,7.54-2.95,1.9-5.73,3.57-8.72,5.4A10.35,10.35,0,0,1,138,452.2Z"></path></g><g style="opacity:0.30000000000000004"><path d="M170.94,423.56a73,73,0,0,1-12.2,9.51c-3.68,2.44-7.22,4.94-11.25,7.54-3,1.9-5.74,3.56-8.73,5.39a10.15,10.15,0,0,1-3.83,1.59Z"></path></g><g style="opacity:0.30000000000000004"><path d="M165.47,399.53c.26.38,5.45,10,8.12,14.9a6.72,6.72,0,0,1,.26,5.85l-1.19,2.77-39.89,26.72-3,0a6.69,6.69,0,0,1-5.36-2.52l-10.56-13.2Z"></path></g><path d="M126.7,448.56c.07.09,10.79-7,24-15.79s23.77-16,23.71-16.13-10.79,7-24,15.78S126.64,448.46,126.7,448.56Z" style="fill:#263238"></path><path d="M114,433.64c.06.11,11.74-7.52,26.07-17s25.89-17.32,25.82-17.43-11.74,7.51-26.07,17S113.92,433.53,114,433.64Z" style="fill:#263238"></path><polygon points="67.38 360.93 77.81 362.88 93.58 371.83 111.75 363.38 126.7 371.22 130.03 364.05 126.7 352.62 132.53 345.92 142.75 352.94 141.14 381.91 153.64 407.06 127.94 424.67 95.91 391.18 74.18 385.29 65 364.72 67.38 360.93" style="fill:#18A999;opacity:0.6000000000000001"></polygon></g></svg>